<svg xmlns="http://www.w3.org/2000/svg" xmlns:xlink="http://www.w3.org/1999/xlink" viewBox="0 0 221 221"><defs><style>.a{clip-path:url(#d);}.b{fill:#00ab28;}.c,.e{fill:#fff;}.d,.e{stroke:none;}.f{fill:rgba(255,255,255,0);}.g{filter:url(#a);}</style><filter id="a" x="0.093" y="1.335" width="221.805" height="221.805" filterUnits="userSpaceOnUse"><feOffset dx="3" dy="3" input="SourceAlpha"/><feGaussianBlur stdDeviation="2" result="b"/><feFlood flood-opacity="0.161"/><feComposite operator="in" in2="b"/><feComposite in="SourceGraphic"/></filter><clipPath id="d"><rect width="221" height="221"/></clipPath></defs><g id="c" class="a"><rect class="f" width="221" height="221"/><g transform="translate(-43.907 -427.907)"><g class="g" transform="matrix(1, 0, 0, 1, 43.91, 427.91)"><g class="b" transform="translate(3.09 4.34)"><path class="d" d="M 104.90234375 206.8047027587891 C 97.98643493652344 206.8047027587891 91.07575225830078 206.1081390380859 84.36228179931641 204.734375 C 77.82096099853516 203.3958129882813 71.38669586181641 201.3985137939453 65.23825836181641 198.7979278564453 C 59.20078659057617 196.2443084716797 53.37740325927734 193.0834350585938 47.92987442016602 189.4031677246094 C 42.5333137512207 185.7573089599609 37.45851898193359 181.5702209472656 32.84648895263672 176.9581909179688 C 28.23446083068848 172.3461608886719 24.04737281799316 167.2714080810547 20.40151977539063 161.8748474121094 C 16.72125625610352 156.4273071289063 13.56040287017822 150.6039276123047 11.00675582885742 144.5664367675781 C 8.406167030334473 138.4179840087891 6.408873081207275 131.9837188720703 5.070343971252441 125.4424057006836 C 3.696549654006958 118.7289352416992 2.999990701675415 111.8182525634766 2.999990701675415 104.90234375 C 2.999990701675415 97.98643493652344 3.696549654006958 91.07575225830078 5.070343971252441 84.36228179931641 C 6.408873081207275 77.82096099853516 8.406167030334473 71.38669586181641 11.00675582885742 65.23825836181641 C 13.56040287017822 59.20078659057617 16.72125625610352 53.37740325927734 20.40151977539063 47.92987442016602 C 24.04737281799316 42.5333137512207 28.23446083068848 37.45851898193359 32.84648895263672 32.84648895263672 C 37.45851898193359 28.23446083068848 42.5333137512207 24.04737281799316 47.92987442016602 20.40151977539063 C 53.37740325927734 16.72125625610352 59.20078659057617 13.56040287017822 65.23825836181641 11.00675582885742 C 71.38669586181641 8.406167030334473 77.82096099853516 6.408873081207275 84.36228179931641 5.070343971252441 C 91.07575225830078 3.696549654006958 97.98643493652344 2.999990701675415 104.90234375 2.999990701675415 C 111.8182525634766 2.999990701675415 118.7289352416992 3.696549654006958 125.4424057006836 5.070343971252441 C 131.9837188720703 6.408873081207275 138.4179840087891 8.406167030334473 144.5664367675781 11.00675582885742 C 150.6039276123047 13.56040287017822 156.4273071289063 16.72125625610352 161.8748474121094 20.40151977539063 C 167.2714080810547 24.04737281799316 172.3461608886719 28.23446083068848 176.9581909179688 32.84648895263672 C 181.5702209472656 37.45851898193359 185.7573089599609 42.5333137512207 189.4031677246094 47.92987442016602 C 193.0834350585938 53.37740325927734 196.2443084716797 59.20078659057617 198.7979278564453 65.23825836181641 C 201.3985137939453 71.38669586181641 203.3958129882813 77.82096099853516 204.734375 84.36228179931641 C 206.1081390380859 91.07575225830078 206.8047027587891 97.98643493652344 206.8047027587891 104.90234375 C 206.8047027587891 111.8182525634766 206.1081390380859 118.7289352416992 204.734375 125.4424057006836 C 203.3958129882813 131.9837188720703 201.3985137939453 138.4179840087891 198.7979278564453 144.5664367675781 C 196.2443084716797 150.6039276123047 193.0834350585938 156.4273071289063 189.4031677246094 161.8748474121094 C 185.7573089599609 167.2714080810547 181.5702209472656 172.3461608886719 176.9581909179688 176.9581909179688 C 172.3461608886719 181.5702209472656 167.2714080810547 185.7573089599609 161.8748474121094 189.4031677246094 C 156.4273071289063 193.0834350585938 150.6039276123047 196.2443084716797 144.5664367675781 198.7979278564453 C 138.4179840087891 201.3985137939453 131.9837188720703 203.3958129882813 125.4424057006836 204.734375 C 118.7289352416992 206.1081390380859 111.8182525634766 206.8047027587891 104.90234375 206.8047027587891 Z"/><path class="e" d="M 104.90234375 203.8046722412109 C 159.4372711181641 203.8046722412109 203.8046722412109 159.4372711181641 203.8046722412109 104.90234375 C 203.8046722412109 50.36740875244141 159.4372711181641 6.00001049041748 104.90234375 6.00001049041748 C 50.36740875244141 6.00001049041748 6.00001049041748 50.36740875244141 6.00001049041748 104.90234375 C 6.00001049041748 159.4372711181641 50.36740875244141 203.8046722412109 104.90234375 203.8046722412109 M 104.90234375 209.8046722412109 C 46.96637725830078 209.8046722412109 1.041666655510198e-05 162.8383483886719 1.041666655510198e-05 104.90234375 C 1.041666655510198e-05 46.96637725830078 46.96637725830078 1.041666655510198e-05 104.90234375 1.041666655510198e-05 C 162.8383483886719 1.041666655510198e-05 209.8046722412109 46.96637725830078 209.8046722412109 104.90234375 C 209.8046722412109 162.8383483886719 162.8383483886719 209.8046722412109 104.90234375 209.8046722412109 Z"/></g></g><path class="c" d="M36.191,62.941,0,26.75l7.343-7.343L36.191,47.731,83.922,0l7.343,7.343Z" transform="translate(104.696 505.674)"/></g></g></svg>