<?xml version="1.0" encoding="utf-8"?>
<!-- Generator: Adobe Illustrator 21.1.0, SVG Export Plug-In . SVG Version: 6.00 Build 0)  -->
<svg version="1.1" id="Camada_1" xmlns="http://www.w3.org/2000/svg" xmlns:xlink="http://www.w3.org/1999/xlink" x="0px" y="0px"
	 viewBox="0 0 500 500" style="enable-background:new 0 0 500 500;" xml:space="preserve">
<style type="text/css">
	.st0{fill:none;}
	.st1{fill:#FFFFFF;}
</style>
<ellipse transform="matrix(7.283126e-02 -0.9973 0.9973 7.283126e-02 313.7848 1137.2856)" class="st0" cx="768.6" cy="399.9" rx="48.9" ry="48.9"/>
<ellipse transform="matrix(0.7567 -0.6537 0.6537 0.7567 -61.1061 517.7307)" class="st0" cx="665.1" cy="341" rx="48.9" ry="48.9"/>
<ellipse transform="matrix(0.7567 -0.6537 0.6537 0.7567 123.4966 631.905)" class="st0" cx="910.8" cy="150" rx="48.9" ry="48.9"/>
<ellipse transform="matrix(7.283117e-02 -0.9973 0.9973 7.283117e-02 657.6268 889.6281)" class="st0" cx="807.3" cy="91.1" rx="48.9" ry="48.9"/>
<ellipse transform="matrix(7.283108e-02 -0.9973 0.9973 7.283108e-02 609.5347 1185.3778)" class="st0" cx="942.3" cy="264.9" rx="48.9" ry="48.9"/>
<ellipse transform="matrix(0.7567 -0.6537 0.6537 0.7567 -25.8914 667.1196)" class="st0" cx="883.4" cy="368.3" rx="48.9" ry="48.9"/>
<g>
	<path class="st1" d="M484.4,210.6c-10.1-63-44.2-118.4-95.9-155.8C352.5,28.7,310.2,13.2,266,10c-35.5-2.6-71.7,2.9-104.9,15.8
		c-11.5,4.5-19.3,14.5-20.8,26.7c-1.6,12.3,3.5,24,13.6,31.2l0.4,0.3c25.8,18.7,45.1,43,54.2,68.5c3.4,9.4,5.2,18.5,5.5,27.1
		l37.5,33.5l-14.7,16.4l-27.1-24.3c-1.6,3.8-3.6,7.4-6,10.8c-12.6,17.4-35.9,26.2-64,24.2c-25.6-1.9-52.8-12.4-76.8-29.8l-0.4-0.3
		c-5.1-3.7-11-5.9-17.2-6.3c-8.9-0.6-17.8,2.4-24.5,8.3c-6.7,5.9-10.6,14.1-11.1,23c-4.5,81.7,32.4,159,98.6,206.9
		c36,26.1,78.4,41.5,122.5,44.8c0,0,0,0,0,0c39.9,2.9,80.3-4.3,116.7-20.8c37.6-17.1,70.3-43.9,94.6-77.5
		C479.5,336.8,494.6,273.6,484.4,210.6z M342,119.5c20.4-17.7,51.3-15.4,69,5c17.7,20.4,15.4,51.3-5,69c-20.4,17.7-51.3,15.4-69-5
		C319.3,168,321.5,137.1,342,119.5z M221.7,94c2-26.9,25.4-47.2,52.4-45.2c26.9,2,47.2,25.4,45.2,52.4c-2,26.9-25.4,47.2-52.4,45.2
		C240,144.4,219.7,121,221.7,94z M254.4,216.1l28.2,25.2l0,0c1.3,1.4-0.8,6.1-4.7,10.5c-4,4.5-8.4,7-9.9,5.9l0,0l-28.2-25.2
		L254.4,216.1z M160.3,384.5c-20.4,17.7-51.3,15.4-69-5c-17.7-20.4-15.4-51.3,5-69c20.4-17.7,51.3-15.4,69,5
		C183,335.9,180.7,366.8,160.3,384.5z M280.6,409.9c-2,26.9-25.4,47.2-52.4,45.2c-26.9-2-47.2-25.4-45.2-52.4
		c2-26.9,25.4-47.2,52.4-45.2C262.3,359.5,282.5,383,280.6,409.9z M271.2,260.9L271.2,260.9c1.8,0.6,5.9-1.9,9.6-6.1
		c3.7-4.2,5.8-8.5,5-10.2l0.1-0.1c70.3,10.6,60.8,69.2,60.8,69.2s1.1-19.2-32.5-17.7C280.7,297.5,271.2,260.9,271.2,260.9z
		 M378.6,411.8c-20.4,17.7-51.3,15.4-69-5c-17.7-20.4-15.4-51.3,5-69c20.4-17.7,51.3-15.4,69,5C401.3,363.3,399,394.2,378.6,411.8z
		 M454.3,274.9c-2,26.9-25.4,47.2-52.4,45.2c-26.9-2-47.2-25.4-45.2-52.4c2-26.9,25.4-47.2,52.4-45.2
		C436,224.5,456.3,247.9,454.3,274.9z"/>
	<path class="st1" d="M214,179.6l-36.9-33l-71.8-64.3L12.6,10.5c-2.7-2.1-6,1.6-3.6,4l81.7,84.3l60.7,54.3l58.4,52.3
		C212.9,197.5,214.3,188.9,214,179.6z"/>
</g>
</svg>
