<?xml version="1.0" encoding="utf-8"?>
<!-- Generator: Adobe Illustrator 21.1.0, SVG Export Plug-In . SVG Version: 6.00 Build 0)  -->
<svg version="1.1" id="Camada_1" xmlns="http://www.w3.org/2000/svg" xmlns:xlink="http://www.w3.org/1999/xlink" x="0px" y="0px"
	 viewBox="0 0 221 221" style="enable-background:new 0 0 221 221;" xml:space="preserve">
<style type="text/css">
	.st0{fill:#BF0025;}
	.st1{fill:#FFFFFF;}
</style>
<g>
	<g>
		<circle class="st0" cx="111.4" cy="111.5" r="105"/>
	</g>
</g>
<g>
	<g>
		<path class="st1" d="M162.5,79.3c0-5.8-4.7-10.5-10.5-10.5h-24.7c0-0.7,0-1.2,0-1.2c0-5.5-4.5-9.9-9.9-9.9h-12.2
			c-5.5,0-9.9,4.5-9.9,9.9c0,0,0,0.5,0,1.2H70.7c-5.8,0-10.5,4.7-10.5,10.5c0,5.3,4,9.7,9.1,10.4v57.2c0,9.5,7.7,17.2,17.2,17.2
			h49.6c9.5,0,17.2-7.7,17.2-17.2V89.7C158.5,89,162.5,84.7,162.5,79.3z M105.3,63.9h12.2c2,0,3.7,1.7,3.7,3.7c0,0.2,0,0.4,0,0.7
			h-19.5c0-0.3,0-0.5,0-0.7C101.6,65.6,103.2,63.9,105.3,63.9z M147.2,146.9c0,6-4.9,11-11,11H86.6c-6,0-11-4.9-11-11V89.8h71.5
			L147.2,146.9L147.2,146.9z M152,83.6h-1.8H72.5h-1.8c-2.4,0-4.3-1.9-4.3-4.3s1.9-4.3,4.3-4.3H152c2.4,0,4.3,1.9,4.3,4.3
			S154.4,83.6,152,83.6z"/>
	</g>
	<g>
		<path class="st1" d="M91,140.9c1.7,0,3.1-1.2,3.1-2.7v-31.7c0-1.5-1.4-2.7-3.1-2.7s-3.1,1.2-3.1,2.7v31.7
			C87.9,139.7,89.3,140.9,91,140.9z"/>
	</g>
	<g>
		<path class="st1" d="M111.3,143.8c1.7,0,3.1-1.4,3.1-3.1V104c0-1.7-1.4-3.1-3.1-3.1s-3.1,1.4-3.1,3.1v36.7
			C108.2,142.4,109.6,143.8,111.3,143.8z"/>
	</g>
	<g>
		<path class="st1" d="M131.7,140.9c1.7,0,3.1-1.2,3.1-2.7v-31.7c0-1.5-1.4-2.7-3.1-2.7c-1.7,0-3.1,1.2-3.1,2.7v31.7
			C128.6,139.7,130,140.9,131.7,140.9z"/>
	</g>
</g>
</svg>
