<?xml version="1.0" encoding="utf-8"?>
<!-- Generator: Adobe Illustrator 21.1.0, SVG Export Plug-In . SVG Version: 6.00 Build 0)  -->
<svg version="1.1" id="Camada_1" xmlns="http://www.w3.org/2000/svg" xmlns:xlink="http://www.w3.org/1999/xlink" x="0px" y="0px"
	 viewBox="0 0 221 221" style="enable-background:new 0 0 221 221;" xml:space="preserve">
<style type="text/css">
	.st0{fill:#E356A6;}
	.st1{fill:#FFFFFF;}
</style>
<g>
	<g>
		<circle class="st0" cx="111.4" cy="111.5" r="105"/>
	</g>
</g>
<g>
	<g>
		<path class="st1" d="M65.1,179.3c-4.6,0-8.9-1.8-12.1-5l-0.6-0.6c-6.7-6.7-6.7-17.5,0-24.2l52.9-52.9c-5-14.4-1.4-30.3,9.5-41.1
			c7.3-7.3,18.7-11.7,30.5-11.7c4.5,0,8.9,0.7,12.6,2c1.4,0.5,2.4,1.6,2.7,3c0.3,1.4-0.1,2.9-1.1,3.9l-13.9,14l14.6,14.7l13.9-14
			c1-1,2.5-1.4,3.9-1.1c1.4,0.3,2.5,1.4,3,2.7c4.1,12,2,31.1-9.7,42.9c-7.5,7.5-17.5,11.7-28.2,11.7c-4.4,0-8.8-0.7-13-2.2
			l-52.9,52.9C74,177.5,69.7,179.3,65.1,179.3z M145.3,52.1c-9.5,0-18.9,3.5-24.6,9.2C111.5,70.4,108.9,84,114,96
			c0.7,1.6,0.3,3.4-0.9,4.6l-54.8,54.8c-3.4,3.4-3.4,9,0,12.4l0.6,0.6c3.3,3.3,9.1,3.3,12.5,0l54.8-54.8c1.2-1.2,3-1.5,4.6-0.9
			c3.9,1.7,8.1,2.5,12.4,2.5c8.4,0,16.4-3.3,22.3-9.2c7.1-7.1,9.8-18.1,9.1-27.2l-11.3,11.4c-1.6,1.6-4.3,1.6-5.9,0l-20.4-20.6
			c-1.6-1.6-1.6-4.2,0-5.8l11.4-11.5C147.3,52.1,146.3,52.1,145.3,52.1z"/>
	</g>
	<g>
		<path class="st1" d="M81.9,109.7l-5.7,5.7L41.3,80.6c-8.3-8.3,21.7-38.3,30-30l25.2,25.2c-0.5,3.7-0.6,7.5-0.2,11.3L73.6,64.3
			c-1.9-1.9-5-1.9-6.9,0c-1.9,1.9-1.9,5,0,6.9l26.9,26.9l-4.7,4.7L62,75.9c-1.9-1.9-5-1.9-6.9,0c-1.9,1.9-1.9,5,0,6.9L81.9,109.7z"
			/>
	</g>
	<g>
		<polygon class="st1" points="122.8,138.9 129.7,132 159.9,162.4 163,163.1 169.6,171.7 166,175.2 162.5,178.8 154,172.2 
			153.2,169.1 		"/>
	</g>
</g>
</svg>
