<?xml version="1.0" encoding="utf-8"?>
<!-- Generator: Adobe Illustrator 21.1.0, SVG Export Plug-In . SVG Version: 6.00 Build 0)  -->
<svg version="1.1" id="Camada_1" xmlns="http://www.w3.org/2000/svg" xmlns:xlink="http://www.w3.org/1999/xlink" x="0px" y="0px"
	 viewBox="0 0 71 66" style="enable-background:new 0 0 71 66;" xml:space="preserve">
<style type="text/css">
	.st0{fill:none;stroke:#FFFFFF;stroke-width:1.2;stroke-miterlimit:10;}
	.st1{fill:none;stroke:#FFFFFF;stroke-width:1.2;stroke-linecap:round;stroke-linejoin:round;stroke-miterlimit:10;}
	.st2{fill:none;stroke:#FFFFFF;stroke-width:1.2;stroke-linecap:round;stroke-miterlimit:10;}
	.st3{fill:none;stroke:#FFFFFF;stroke-miterlimit:10;}
	.st4{fill:none;stroke:#FFFFFF;stroke-width:2;stroke-linecap:round;stroke-linejoin:round;stroke-miterlimit:10;}
</style>
<g>
	<line class="st0" x1="61.9" y1="20.1" x2="63.2" y2="31.5"/>
	<line class="st0" x1="70.7" y1="30.3" x2="68.7" y2="18.7"/>
	<path class="st0" d="M62.3,23.2c0.3,2.7,2.3,3.1,4.4,2.9c0.9-0.1,3-0.5,3-0.5"/>
	<ellipse transform="matrix(0.7474 -0.6644 0.6644 0.7474 1.6111 49.4778)" class="st0" cx="65.9" cy="22.6" rx="1.1" ry="1.1"/>
	<path class="st1" d="M90.8,4.9c-9.3,10-19.4,14.4-29.6,15.2c-1,0.1-2.6,0.4-4.7-0.8c-1.3-0.7-2.5-2-3.4-3c-0.4-0.4-1-0.4-1.4-0.1
		c0,0-0.1,0.1-0.2,0.1c-0.8,0.6-0.4,1.8,0.5,2.9c1.6,2.1,2.8,2.7,2.8,2.7s1.4,4.9,5.3,4.7"/>
</g>
<path class="st0" d="M47.2,28.1c-0.8-0.1-1.5,0.5-1.6,1.3c-0.1,0.8,0.5,1.4,1.3,1.6c2.3,0.3,6,0.7,8.4,0.8
	c15.7,0.7,32-5.2,45.4-18.9"/>
<path class="st2" d="M44.9,24.9c-0.8-0.1-1.5,0.5-1.6,1.3c-0.1,0.8,0.5,1.5,1.3,1.6c1.2,0.1,5.7,0.8,6.8,0.9"/>
<path class="st2" d="M43.7,21.9c-0.8-0.1-1.5,0.5-1.6,1.3c-0.1,0.8,0.5,1.5,1.3,1.6c1.3,0.2,5.8,0.7,7.1,0.8"/>
<path class="st2" d="M51.1,22.8c-1.5-0.2-6.4-0.8-7.4-0.9"/>
<path class="st0" d="M52.6,20.1c-1-0.1-6.4-0.8-7.2-0.9c-0.8-0.1-1.5,0.5-1.6,1.3c-0.1,0.8,0.5,1.5,1.3,1.6"/>
<path class="st0" d="M-8.2,85.1c6.1-2.4,11.3-5.3,15.7-8.5c10.4-7.7,16.6-17.7,20-29.9"/>
<line class="st0" x1="13.4" y1="52.2" x2="23.3" y2="57.8"/>
<line class="st0" x1="9.4" y1="57.9" x2="19.4" y2="64.2"/>
<path class="st0" d="M16.1,53.7c2.3,1.3,2,3.3,1,5.2c-0.5,0.8-1.6,2.6-1.6,2.6"/>
<ellipse transform="matrix(0.9016 -0.4326 0.4326 0.9016 -23.1789 11.7092)" class="st0" cx="14.1" cy="56.8" rx="1.1" ry="1.1"/>
<g>
	<path class="st3" d="M13.5,35l17,2c0.5,0.1,0.9-0.2,1-0.7L36,19.8"/>
	<line class="st3" x1="27" y1="36.6" x2="23.4" y2="49.7"/>
	<line class="st3" x1="45.9" y1="34.6" x2="32.4" y2="33"/>
</g>
<path class="st4" d="M24.8,48.8l19.8-13.3c0.8-0.5,1-1.6,0.5-2.3l-8-12c-0.5-0.8-1.6-1-2.3-0.5L14.9,34c-0.8,0.5-1,1.6-0.5,2.3l8,12
	C22.9,49.1,24,49.3,24.8,48.8z"/>
<path class="st1" d="M-11.8,72.9c4.9-1.8,9.1-4,12.6-6.6C8.4,60.9,13.2,53.8,16,46l0,0c0.5-1.3,1.1-3.5,1.5-4.8
	c0.1-0.5,0.6-0.9,1.1-0.8c0.1,0,0.1,0,0.2,0c1,0.2,1.2,1.3,1,2.8c-0.4,2.6-0.7,3.8-0.7,3.8s3.8,1.8,2.3,5.8"/>
<path class="st1" d="M7.7,76.5"/>
</svg>
