<?xml version="1.0" encoding="utf-8"?>
<!-- Generator: Adobe Illustrator 21.1.0, SVG Export Plug-In . SVG Version: 6.00 Build 0)  -->
<svg version="1.1" id="Camada_1" xmlns="http://www.w3.org/2000/svg" xmlns:xlink="http://www.w3.org/1999/xlink" x="0px" y="0px"
	 viewBox="0 0 671 702" style="enable-background:new 0 0 671 702;" xml:space="preserve">
<style type="text/css">
	.st0{fill:#7D2186;}
	.st1{fill:#FFFFFF;}
</style>
<g id="Background">
</g>
<g id="ICON">
	<g>
		<path class="st0" d="M147.9,93.2c-111.6,110.4-112.6,291-2.2,402.6c18.3,18.5,38.9,34.4,61.3,47.2c20.4,11.6,42.2,20.7,64.9,26.9
			l59.8,106c2.8,5,7.6,8.2,13.2,8.9s11.3-1.3,15.3-5.2c1.1-1.1,2-2.3,2.7-3.6l61.4-106.2c46.5-12.8,89.3-37.6,124-71.9
			c111.6-110.4,112.6-291,2.2-402.6C440.1-16.3,259.5-17.2,147.9,93.2z"/>
		<g>
			<polygon class="st1" points="410.4,419.9 410.4,457.5 284.9,457.5 284.9,419.9 322.6,419.9 322.6,256.7 284.9,256.7 284.9,219.1 
				372.8,219.1 372.8,419.9 			"/>
			<path class="st1" d="M372.8,143.7c0,20.8-16.9,37.6-37.6,37.6c-20.8,0-37.6-16.9-37.6-37.6s16.9-37.6,37.6-37.6
				S372.8,123,372.8,143.7z"/>
		</g>
	</g>
</g>
</svg>
