<?xml version="1.0" encoding="utf-8"?>
<!-- Generator: Adobe Illustrator 21.1.0, SVG Export Plug-In . SVG Version: 6.00 Build 0)  -->
<svg version="1.1" id="Camada_1" xmlns="http://www.w3.org/2000/svg" xmlns:xlink="http://www.w3.org/1999/xlink" x="0px" y="0px"
	 viewBox="0 0 202 106.5" style="enable-background:new 0 0 202 106.5;" xml:space="preserve">
<style type="text/css">
	.st0{fill:#FFFFFF;}
</style>
<g>
	<path class="st0" d="M9.2,30c-2.8,2.8-2.8,7.6,0,10.5c3,3,7.6,3,10.6,0c3-3,3-7.6,0-10.5C16.8,27,12.2,27,9.2,30z"/>
	<path class="st0" d="M9.3,65.4c-3,3-3,7.6,0,10.6c2.8,2.8,7.6,2.8,10.5,0c3-3,3-7.6,0-10.6C16.8,62.4,12.2,62.4,9.3,65.4z"/>
	<path class="st0" d="M37.3,8.3c-2.6-2.7-3.8-2.5-6.9,0.2l-0.9,0.8c-3,2.7-2.9,3.8-0.5,6.6c8.7,9.6,13,21.9,13,37.1
		c0,15.3-4.4,27.7-13.2,37.1c-2.6,3-2.4,3.7,0.6,6.5l1,0.9c3.1,2.8,3.8,3,6.8,0.3c11-11.4,16.6-26.3,16.6-44.8
		C53.8,34.9,48.3,19.9,37.3,8.3z"/>
	<path class="st0" d="M93.2,35.2c14.2,0,20.4,6.4,20.4,16.7c0,5.9-2.5,10.3-7.5,13.2c7,3.4,9.4,7.8,9.4,14.4
		c0,12-7.1,17.9-21.3,17.9H79.4c-6.3,0-11.5-5.1-11.5-11.5V46.6c0-6.3,5.1-11.3,11.5-11.3L93.2,35.2z M83.6,47.1
		c-1.6,0-2.9,1.3-2.9,2.9v10h12.4c4.9,0,7.4-2.2,7.4-6.6c0-4.2-2.5-6.3-7.4-6.3H83.6z M80.8,71v11.5c0,1.6,1.3,2.9,2.9,2.9h10.5
		c5.6,0,8.3-2.3,8.3-7c0-4.9-2.8-7.4-8.3-7.4H80.8z"/>
	<path class="st0" d="M122.6,54.9c0-4.3,1.1-5.6,5.6-5.6h1.7c4.5,0,5.6,1.2,5.6,5.6v36.9c0,4.3-1.1,5.6-5.6,5.6h-1.7
		c-4.5,0-5.6-1.2-5.6-5.6V54.9z"/>
	<path class="st0" d="M143.3,40.7c0-4.3,1.1-5.6,5.5-5.6h26.6c10.6,0,14.4,3.5,14.4,11.5c0,5.7-1.8,9.5-7.2,13.7l-27.7,21.2
		c-1.4,1.1-2.2,2-2.2,2.7c0,0.8,1,1.1,2.9,1.1h28.7c3.1,0,5.6,2.5,5.6,5.6v0.9c0,4.3-1.1,5.6-5.5,5.6h-28.5c-6,0-10.1-1-12.2-2.8
		c-2.1-1.8-3.2-4.7-3.2-8.5c0-6,1.8-9.6,7.1-13.7l28.1-21.6c1.2-1,1.8-1.7,1.8-2.4c0-0.9-1-1.2-2.8-1.2h-25.7
		c-3.1,0-5.5-2.5-5.5-5.5V40.7z"/>
	<path class="st0" d="M122.6,40.5c0-4.3,1.1-5.6,5.6-5.6h1.7c4.5,0,5.6,1.2,5.6,5.6v0.3c0,4.3-1.1,5.6-5.6,5.6h-1.7
		c-4.5,0-5.6-1.2-5.6-5.6V40.5z"/>
</g>
</svg>
