<?xml version="1.0" encoding="utf-8"?>
<!-- Generator: Adobe Illustrator 21.1.0, SVG Export Plug-In . SVG Version: 6.00 Build 0)  -->
<svg version="1.1" xmlns="http://www.w3.org/2000/svg" xmlns:xlink="http://www.w3.org/1999/xlink" x="0px" y="0px"
	 viewBox="0 0 211 198" style="enable-background:new 0 0 211 198;" xml:space="preserve">
<style type="text/css">
	.st0{display:none;}
	.st1{fill-rule:evenodd;clip-rule:evenodd;fill:#7D2186;}
	.st2{fill-rule:evenodd;clip-rule:evenodd;fill:#CA68A0;}
</style>
<g id="Grade" class="st0">
</g>
<g id="Camada_1">
</g>
<g id="Ãrea_de_trabalho">
</g>
<g id="Linhas-guia">
</g>
<g id="Page_1">
	<g id="Camada_1_1_">
		<g>
			<path class="st1" d="M95.6,76.4c4.2-4.7,12.3-7.7,19-11.7c8.4-5,14.6-11.2,9-20.3c-6.2-5.9-14.7-5.2-21.5,4.7
				c-14.1-9.6-22.3,4.3-21.7,9.1C81.2,67.8,90.8,73.4,95.6,76.4L95.6,76.4z M99.3,92.3c23.9,7,52.8-3.3,62.7-24
				c12.7-29.9-4.9-55-38.6-60.8C61.8,1.1,41.7,52.4,42.9,78.9c-0.9,34.2,19.2,70.8,49,62.6c8.9-5.6,8.7-16.6,5.1-30.2
				C96.4,105.4,96.2,99,99.3,92.3L99.3,92.3z"/>
			<path class="st1" d="M14.9,154.9c1-0.3,2.1-0.6,3.1-0.9c0.2,9,0.5,18,0.7,27c0.5,0.7,0.9,1.4,1.4,2.1c1.8,0,3.6,0,5.5,0.1
				c0.6-0.5,1.3-1,1.9-1.5c0-2.7-0.1-5.4-0.1-8.1c10,0.2,17.4-5.9,16.6-15.4c-1-8.7-9.4-12.9-17.8-8.7c-0.1-1.2-0.7-1.8-2.1-1.6
				c-3,0.8-6.1,1.9-9.2,3.4c-0.9,0.5-1,0.8-1,2.1C13.7,155,13.8,155.2,14.9,154.9L14.9,154.9z M27,168.3c-0.3-5.6-0.9-13.3,3-15.8
				c5.3-2.5,6.8,4.1,6,8.5C35.1,166.1,32.3,168.8,27,168.3L27,168.3z M49.5,165.6c7.2-1.9,8.8,0.1,8.8,3.3
				c-6-0.2-15.2,2.7-13.3,11.4c0.9,3.2,6.3,3.5,13.3,1.3c0.3,1.3,1.5,2.3,3.5,1.5c2.9-1,5.1-2.1,7.8-3.5c0.8-0.4,1.2-1.1,1.2-2.1
				c0-0.4,0-0.8-0.1-1.2c0-1.2-0.5-1.1-1-0.8c-0.9,0.4-1.8,0.9-2.7,1.3c0.6-6.4,1.1-12.6-3.4-15.8c-3.7-2.3-8.6-2.2-14.7-0.3
				c-1.2,0.4-1.5,0.9-1.4,2.2l0.3,1.8C48.1,165.8,48.6,165.8,49.5,165.6L49.5,165.6z M58.2,177.8c0.1-1.7,0.2-3.3,0.3-5
				c0.1-0.7-0.2-1-0.9-0.9c-2,0.5-3.6,1.1-4.6,1.9c-1.9,1.4-3.1,4.4-0.1,5.3c1.2,0.3,2.8,0.1,4.6-0.3
				C58,178.5,58.1,178.2,58.2,177.8L58.2,177.8z M150.6,146.9c2.7,0,4.9,1.7,4.9,3.8s-2.2,3.8-4.9,3.8c-2.7,0-4.9-1.7-4.9-3.8
				S147.9,146.9,150.6,146.9L150.6,146.9z M183.6,146.3c2.7,0,4.9,1.7,4.9,3.8c0,2.1-2.2,3.8-4.9,3.8s-4.9-1.7-4.9-3.8
				C178.7,148,180.9,146.3,183.6,146.3L183.6,146.3z M147.3,158.9c1.7-0.1,3.3-0.2,5-0.4c1.7-0.2,2.1,0.5,2.1,1.6
				c-0.1,4-0.1,7.9-0.2,11.9c-0.1,2.4,0.3,4.2,3,3.4c0.5-0.3,0.9-0.6,1.2-1c0.6-0.6,1-0.2,1.1,0.4c0.1,0.4,0.1,0.8,0.2,1.2
				c0.1,0.9-0.1,1.3-0.4,1.7c-3.5,2.7-6.8,4.7-9.2,4.3c-3.4-0.7-4.2-3.6-4.2-6.3c0-5.2,0-9.8-0.1-14.9
				C145.6,159.5,146.3,159,147.3,158.9L147.3,158.9z M180.4,158.6c1.7-0.1,3.3-0.2,5-0.4c1.7-0.2,2.1,0.5,2.1,1.6
				c-0.1,4-0.1,7.9-0.2,11.9c-0.1,2.4,0.3,4.2,3,3.4c0.5-0.3,0.9-0.6,1.2-1c0.6-0.6,1-0.2,1.1,0.4c0.1,0.4,0.1,0.8,0.2,1.2
				c0.1,0.9-0.1,1.3-0.4,1.7c-3.5,2.7-6.8,4.7-9.2,4.3c-3.4-0.7-4.2-3.6-4.2-6.3c0-5.2,0-9.8-0.1-14.9
				C178.7,159.2,179.4,158.7,180.4,158.6L180.4,158.6z M163.7,146.2c1.7-0.1,3.3-0.2,5-0.4c1.7-0.2,2.1,0.5,2.1,1.6
				c-0.1,4,0.1,20.3,0,24.3c-0.1,2.4,0.3,4.2,3,3.4c0.5-0.3,0.9-0.6,1.2-1c0.6-0.6,1-0.2,1.1,0.4c0.1,0.4,0.1,0.8,0.2,1.2
				c0.1,0.9-0.1,1.3-0.4,1.7c-3.5,2.7-6.8,4.7-9.2,4.3c-3.4-0.7-4.2-3.6-4.2-6.3c0-5.2-0.2-22.2-0.2-27.4
				C162,146.8,162.7,146.3,163.7,146.2L163.7,146.2z M73.5,161.6c0-0.8,0.1-1.6,1.2-1.6c1.6-0.1,3.2-0.1,4.8-0.2
				c1-0.2,1.6,0.1,1.6,0.8c0.1,1.3,0.1,2.7,0.2,4c2.3-3.8,5.2-5.7,8.7-5.6c3,0.3,4.7,2.2,5.5,5.2c1.4-1.9,3.8-5.9,8.5-5.5
				c3.2,0.5,5.5,2.3,5.9,6.6c0,3.8,0,7.5-0.1,11.3c1-0.3,2-0.8,2.8-1.5c0.5-0.3,0.9-0.2,1.1,0.3c0.1,0.6,0.2,1.1,0.2,1.7
				c0.1,0.8-0.1,1.3-0.4,1.6c-2.9,1.8-5.8,3.2-8.8,4.1c-2.1,0.4-3.4,0-3.3-2c0.3-4.3,0.5-8.6,0.8-13c-0.2-4.4-4.4-3.7-5.4-0.1
				c-0.7,4-1,7.8-1.2,11.9c0.1,1.3-0.2,2.3-1.6,2.3c-1.5,0-3,0.1-4.6,0.1c-1.2,0-1.9-0.3-1.9-1.4c0.1-4.3,0.3-8.6,0.4-12.9
				c0.1-1.8-0.6-2.8-2.2-2.8c-1.5,0-2.8,1.7-3.2,3.6c-0.6,4-0.9,7.6-1.1,11.8c0,0.9-0.2,1.7-1.2,1.7c-1.7,0.1-3.4,0.1-5.1,0.2
				c-1.1,0-1.8-0.4-1.8-1.5C73.4,174.3,73.4,168,73.5,161.6L73.5,161.6z M117,161.4c0-1.1,0.3-1.9,1.6-2c1.6-0.1,3.2-0.2,4.8-0.2
				c1.2-0.1,1.5,0.4,1.4,1.2c0,1.3,0,2.5,0,3.8c1.7-2.6,3.3-4.2,5-5.1c4.5-2.3,9.2,1,10.8,5.3c0.7,1.8,0.9,4,0.7,6.8
				c-1.7,10-7.2,13-15.7,10.2c0,3.4,0,6.8,0,10.2c0.2,1.2-0.2,1.9-1.1,2.1c-1.7,0.1-3.4,0.2-5.2,0.4c-1.1,0.1-2-0.1-1.9-1.2
				C117.2,182.2,117.1,171.8,117,161.4L117,161.4z M125.1,175.6c0.3-7.7,3.1-12.5,6.3-11.6c1.8,0.5,2.7,5.1,1.9,8.6
				C132.4,176.7,127.7,178.3,125.1,175.6L125.1,175.6z"/>
			<path class="st2" d="M95.2,82.8c6.8-9.4,17.9-11.5,26.9-17.3c25.3-19.4-3-47.1-21.1-27.1c-18.7-9.2-27.7,6-29,11.8
				c-2,8.9,1.3,23.6,22.2,32.9c-5.7,6.7-7.9,16.5-5.7,30.2c2.6,10.5,4.8,20.8-5.2,21.8c-18.7,0.9-34.7-21-36.3-47.9
				C42.9,35.9,76,9,115.9,11.6c32.2,3.1,51.8,30,36,55.2C142.4,82.4,112.4,92.8,95.2,82.8L95.2,82.8z"/>
		</g>
	</g>
</g>
</svg>
