<svg xmlns="http://www.w3.org/2000/svg" xmlns:xlink="http://www.w3.org/1999/xlink" viewBox="0 0 71 66">
  <defs>
    <style>
      .cls-1 {
        clip-path: url(#clip-pasta);
      }

      .cls-2 {
        fill: #fff;
      }

      .cls-3 {
        fill: rgba(255,255,255,0);
      }
    </style>
    <clipPath id="clip-pasta">
      <rect width="71" height="66"/>
    </clipPath>
  </defs>
  <g id="pasta" class="cls-1">
    <rect class="cls-3" width="71" height="66"/>
    <g id="Group_91" data-name="Group 91" transform="translate(5 5.119)">
      <path id="Path_125" data-name="Path 125" class="cls-2" d="M53.46,26.3H42.822a2.7,2.7,0,0,0-2.693,2.693,1.471,1.471,0,0,1-1.549,1.481H14.543c-1.481,0-3.434.4-3.972,2.693L10.1,35.793H2.559A2.478,2.478,0,0,0,0,38.15L4.646,62.119C5.117,64,7.07,64.543,8.955,64.476h40.6c.471,0,.539-.606.673-1.347l5.925-34.136C56.557,26.569,55.412,26.3,53.46,26.3Zm-2.424,7.945L47.063,56.127,43.63,38.15c-.337-1.683-2.289-2.357-4.174-2.357H11.311l.269-1.549a1.643,1.643,0,0,1,1.481-1.279h36.9A1.084,1.084,0,0,1,51.036,34.245Z" transform="translate(0 -8.592)"/>
      <path id="Path_126" data-name="Path 126" class="cls-2" d="M34.507,17.977h7.07V8.484h4.174L38.076,0,30.4,8.484h4.107Z" transform="translate(-9.932)"/>
    </g>
  </g>
</svg>
