<svg xmlns="http://www.w3.org/2000/svg" xmlns:xlink="http://www.w3.org/1999/xlink" viewBox="0 0 221 221"><defs><style>.a{clip-path:url(#b);}.b{fill:#e257a7;}.c{fill:rgba(255,255,255,0);}</style><clipPath id="b"><rect width="221" height="221"/></clipPath></defs><g id="a" class="a"><rect class="c" width="221" height="221"/><g transform="translate(14.97 0)"><path class="b" d="M158.153,221H15.625A15.6,15.6,0,0,1,0,205.461V15.539A15.6,15.6,0,0,1,15.625,0h95.047a3.463,3.463,0,0,1,3.453,3.453V50.761a8.677,8.677,0,0,0,8.719,8.633h47.48a3.463,3.463,0,0,1,3.453,3.453V125a3.463,3.463,0,0,1-3.453,3.453H60.084a8.733,8.733,0,0,0-8.719,8.633v41.783a8.677,8.677,0,0,0,8.719,8.633H170.325a3.463,3.463,0,0,1,3.453,3.453v14.5A15.6,15.6,0,0,1,158.153,221ZM15.625,6.906a8.677,8.677,0,0,0-8.719,8.633V205.461a8.677,8.677,0,0,0,8.719,8.633H158.239a8.733,8.733,0,0,0,8.719-8.633V194.5H60.084a15.6,15.6,0,0,1-15.625-15.539V137.175a15.6,15.6,0,0,1,15.625-15.539H166.872V66.386H122.845a15.6,15.6,0,0,1-15.625-15.539V6.906Z"/></g><g transform="translate(122.19 0)"><path class="b" d="M187.306,66.3h-47.48A15.6,15.6,0,0,1,124.2,50.761V3.453a3.479,3.479,0,0,1,5.957-2.417l59.48,59.221a3.288,3.288,0,0,1,1.209,2.676A3.584,3.584,0,0,1,187.306,66.3Zm-56.2-54.559v39.02a8.677,8.677,0,0,0,8.719,8.633h39.107Z" transform="translate(-124.2 0)"/></g><g transform="translate(59.429 121.636)"><path class="b" d="M184.445,213.761H67.125A15.6,15.6,0,0,1,51.5,198.222V156.439A15.6,15.6,0,0,1,67.125,140.9h117.32a15.6,15.6,0,0,1,15.625,15.539v41.783A15.715,15.715,0,0,1,184.445,213.761ZM67.125,147.806a8.733,8.733,0,0,0-8.719,8.633v41.783a8.677,8.677,0,0,0,8.719,8.633h117.32a8.733,8.733,0,0,0,8.719-8.633V156.439a8.677,8.677,0,0,0-8.719-8.633Z" transform="translate(-51.5 -140.9)"/></g><g transform="translate(85.069 141.578)"><path class="b" d="M84.653,202.071a3.463,3.463,0,0,1-3.453-3.453V167.453A3.463,3.463,0,0,1,84.653,164H97.948c5.439,0,9.323,5.007,9.323,12s-3.971,12-9.323,12H88.106v10.7A3.39,3.39,0,0,1,84.653,202.071Zm3.453-21.064h9.841c.259,0,.863,0,1.468-1.036a8.056,8.056,0,0,0,.95-4.057c0-2.417-.95-5.093-2.417-5.093H88.106Z" transform="translate(-81.2 -164)"/></g><g transform="translate(120.031 141.578)"><path class="b" d="M138.448,202.071H125.153a3.463,3.463,0,0,1-3.453-3.453V167.453A3.463,3.463,0,0,1,125.153,164h13.295c8.287,0,14.071,7.856,14.071,19.079a24.07,24.07,0,0,1-3.194,12.518A12.35,12.35,0,0,1,138.448,202.071Zm-9.841-6.906h9.841c2.072,0,3.712-1.036,5.007-3.194a17.709,17.709,0,0,0,2.158-8.978c0-4.921-1.9-12.172-7.165-12.172h-9.841Z" transform="translate(-121.7 -164)"/></g><g transform="translate(159.828 141.578)"><path class="b" d="M171.253,202.071a3.463,3.463,0,0,1-3.453-3.453V167.453A3.463,3.463,0,0,1,171.253,164h18.992a3.453,3.453,0,1,1,0,6.906H174.706v27.8A3.39,3.39,0,0,1,171.253,202.071Z" transform="translate(-167.8 -164)"/><g transform="translate(0 14.071)"><path class="b" d="M184.375,187.206H171.253a3.453,3.453,0,1,1,0-6.906h13.122a3.453,3.453,0,1,1,0,6.906Z" transform="translate(-167.8 -180.3)"/></g></g></g></svg>