<svg xmlns="http://www.w3.org/2000/svg" xmlns:xlink="http://www.w3.org/1999/xlink" viewBox="0 0 136 115"><defs><style>.a{clip-path:url(#d);}.b{fill:#fff;}.c{fill:#7d2186;}.c,.d{fill-rule:evenodd;}.d{fill:#e257a7;}.e{fill:rgba(255,255,255,0);}.f{filter:url(#a);}</style><filter id="a" x="-4.442" y="-1" width="142.432" height="120.975" filterUnits="userSpaceOnUse"><feOffset dy="3" input="SourceAlpha"/><feGaussianBlur stdDeviation="3" result="b"/><feFlood flood-color="#d1049a" flood-opacity="0.2"/><feComposite operator="in" in2="b"/><feComposite in="SourceGraphic"/></filter><clipPath id="d"><rect width="136" height="115"/></clipPath></defs><g id="c" class="a"><rect class="e" width="136" height="115"/><g transform="translate(-893.339 -46.604)"><g transform="translate(780.339 53.604)"><g class="f" transform="matrix(1, 0, 0, 1, 113, -7)"><path class="b" d="M45.31,102.869S55.766,90.654,80.2,79.992s43.632-19.668,43.839-48.135S94.532-.44,89.408-.026,71.448-.44,58.819,15.4c0,0-10.122-13.707-37.214-4.3S-.651,50.7,1.057,57.995,15.6,90.085,44.275,102.921H45.31Z" transform="translate(4.95 5.05)"/></g><g transform="translate(-828.402 -51.729)"><g transform="translate(1083.17 105.005)"><path class="c" d="M42.137,17.139c1.034-1.157,3.028-1.9,4.678-2.881,2.068-1.231,3.594-2.757,2.216-5-1.526-1.453-3.619-1.28-5.293,1.157-3.471-2.363-5.49,1.059-5.342,2.24.172,2.363,2.56,3.742,3.742,4.481Zm.886,3.915c5.884,1.723,13-.812,15.437-5.909C61.586,7.783,57.253,1.6,48.956.176c-15.141-1.6-20.09,11.054-19.794,17.578-.222,8.42,4.727,17.431,12.064,15.412,2.191-1.379,2.142-4.087,1.256-7.435a8.3,8.3,0,0,1,.542-4.678Z" transform="translate(-124.921 -27)"/><path class="c" d="M.323,141.115c.246-.074.517-.148.763-.222.049,2.216.123,4.432.172,6.647.123.172.222.345.345.517.443,0,.886,0,1.354.025.148-.123.32-.246.468-.369,0-.665-.025-1.329-.025-1.994,2.462.049,4.284-1.453,4.087-3.791-.246-2.142-2.314-3.176-4.382-2.142-.025-.3-.172-.443-.517-.394a12.712,12.712,0,0,0-2.265.837c-.222.123-.246.2-.246.517-.025.369,0,.443.246.369Zm3,3.3c-.074-1.379-.222-3.274.739-3.89,1.3-.616,1.674,1.009,1.477,2.093a1.9,1.9,0,0,1-2.216,1.8Zm5.539-.665c1.773-.468,2.167.025,2.167.812-1.477-.049-3.742.665-3.274,2.807.222.788,1.551.862,3.274.32a.572.572,0,0,0,.862.369,13.445,13.445,0,0,0,1.92-.862.529.529,0,0,0,.3-.517,1.2,1.2,0,0,0-.025-.3c0-.3-.123-.271-.246-.2-.222.1-.443.222-.665.32.148-1.576.271-3.1-.837-3.89a4.319,4.319,0,0,0-3.619-.074c-.3.1-.369.222-.345.542l.074.443c.049.271.2.271.419.222Zm2.117,3c.025-.419.049-.812.074-1.231q.037-.258-.222-.222a3.07,3.07,0,0,0-1.133.468c-.468.345-.763,1.083-.025,1.3A2.646,2.646,0,0,0,10.811,147c.148-.074.172-.148.172-.246Zm22.749-7.607a.966.966,0,1,1-1.206.936,1.1,1.1,0,0,1,1.206-.936Zm8.124-.172a.966.966,0,1,1-1.206.936,1.1,1.1,0,0,1,1.206-.936ZM32.944,142.1c.419-.025.812-.049,1.231-.1s.517.123.517.394c-.025.985-.025,1.945-.049,2.93-.025.591.074,1.034.739.837a.985.985,0,0,0,.3-.246c.148-.148.246-.049.271.1.025.1.025.2.049.3a.507.507,0,0,1-.1.419,3.622,3.622,0,0,1-2.265,1.059,1.376,1.376,0,0,1-1.034-1.551c0-1.28,0-2.413-.025-3.668a.363.363,0,0,1,.369-.468Zm8.149-.074c.419-.025.812-.049,1.231-.1s.517.123.517.394c-.025.985-.025,1.945-.049,2.93-.025.591.074,1.034.739.837a.985.985,0,0,0,.3-.246c.148-.148.246-.049.271.1.025.1.025.2.049.3a.507.507,0,0,1-.1.419,3.622,3.622,0,0,1-2.265,1.059,1.376,1.376,0,0,1-1.034-1.551c0-1.28,0-2.413-.025-3.668-.049-.32.1-.443.369-.468Zm-4.111-3.053c.419-.025.812-.049,1.231-.1s.517.123.517.394c-.025.985.025,5,0,5.983-.025.591.074,1.034.739.837a.985.985,0,0,0,.3-.246c.148-.148.246-.049.271.1.025.1.025.2.049.3a.507.507,0,0,1-.1.419,3.622,3.622,0,0,1-2.265,1.059,1.376,1.376,0,0,1-1.034-1.551c0-1.28-.049-5.466-.049-6.746-.074-.3.074-.419.345-.443ZM14.75,142.764c0-.2.025-.394.3-.394.394-.025.788-.025,1.182-.049.246-.049.394.025.394.2.025.32.025.665.049.985a2.4,2.4,0,0,1,2.142-1.379,1.513,1.513,0,0,1,1.354,1.28c.345-.468.936-1.453,2.093-1.354a1.6,1.6,0,0,1,1.453,1.625c0,.936,0,1.846-.025,2.782a1.873,1.873,0,0,0,.689-.369c.123-.074.222-.049.271.074a2.426,2.426,0,0,1,.049.419.45.45,0,0,1-.1.394,9.05,9.05,0,0,1-2.167,1.009c-.517.1-.837,0-.812-.492.074-1.059.123-2.117.2-3.2-.049-1.083-1.083-.911-1.329-.025a23.154,23.154,0,0,0-.3,2.93c.025.32-.049.566-.394.566-.369,0-.739.025-1.133.025-.3,0-.468-.074-.468-.345.025-1.059.074-2.117.1-3.176.025-.443-.148-.689-.542-.689-.369,0-.689.419-.788.886a27.668,27.668,0,0,0-.271,2.905c0,.222-.049.419-.3.419-.419.025-.837.025-1.256.049-.271,0-.443-.1-.443-.369.049-1.576.049-3.127.049-4.7Zm10.71-.074c0-.271.074-.468.394-.492.394-.025.788-.049,1.182-.049.3-.025.369.1.345.3v.936a3.517,3.517,0,0,1,1.231-1.256,1.981,1.981,0,0,1,2.659,1.3,3.853,3.853,0,0,1,.172,1.674c-.419,2.462-1.773,3.2-3.865,2.511v2.511c.049.3-.049.468-.271.517-.419.025-.837.049-1.28.1-.271.025-.492-.025-.468-.3-.025-2.61-.049-5.17-.1-7.755Zm2.019,3.521c.074-1.9.763-3.077,1.551-2.856.443.123.665,1.256.468,2.117a1.218,1.218,0,0,1-2.019.739Z" transform="translate(-103 -131.65)"/><path class="d" d="M44.907,22.075c1.674-2.314,4.407-2.831,6.623-4.259,6.229-4.776-.739-11.6-5.195-6.672-4.6-2.265-6.82,1.477-7.14,2.905-.492,2.191.32,5.81,5.466,8.1-1.4,1.65-1.945,4.062-1.4,7.435.64,2.585,1.182,5.121-1.28,5.367-4.6.222-8.543-5.17-8.937-11.793C32.031,10.553,40.18,3.93,49.979,4.57c7.928.763,12.753,7.386,8.863,13.59-2.339,3.841-9.7,6.4-13.935,3.915Z" transform="translate(-127.79 -30.385)"/></g></g></g></g></g></svg>