<?xml version="1.0" encoding="utf-8"?>
<!-- Generator: Adobe Illustrator 21.1.0, SVG Export Plug-In . SVG Version: 6.00 Build 0)  -->
<svg version="1.1" id="Camada_1" xmlns="http://www.w3.org/2000/svg" xmlns:xlink="http://www.w3.org/1999/xlink" x="0px" y="0px"
	 viewBox="0 0 221 221" style="enable-background:new 0 0 221 221;" xml:space="preserve">
<style type="text/css">
	.st0{clip-path:url(#SVGID_2_);}
	.st1{fill:none;stroke:#AB0000;stroke-miterlimit:10;}
	.st2{fill:#AB0000;}
	.st3{enable-background:new    ;}
</style>
<g>
	<defs>
		<rect id="SVGID_1_" width="221" height="221"/>
	</defs>
	<clipPath id="SVGID_2_">
		<use xlink:href="#SVGID_1_"  style="overflow:visible;"/>
	</clipPath>
	<g id="c" class="st0">
		<g transform="matrix(1, 0, 0, 1, 0, 0)">
			<g transform="translate(7 6)">
				<path class="st1" d="M104.9,206.8c-6.9,0-13.8-0.7-20.5-2.1c-6.5-1.3-13-3.3-19.1-5.9c-6-2.6-11.9-5.7-17.3-9.4
					c-5.4-3.6-10.5-7.8-15.1-12.4c-4.6-4.6-8.8-9.7-12.4-15.1c-3.7-5.4-6.8-11.3-9.4-17.3c-2.6-6.1-4.6-12.6-5.9-19.1
					C3.7,118.7,3,111.8,3,104.9s0.7-13.8,2.1-20.5c1.3-6.5,3.3-13,5.9-19.1c2.6-6,5.7-11.9,9.4-17.3c3.6-5.4,7.8-10.5,12.4-15.1
					c4.6-4.6,9.7-8.8,15.1-12.4c5.4-3.7,11.3-6.8,17.3-9.4c6.1-2.6,12.6-4.6,19.1-5.9C91.1,3.7,98,3,104.9,3s13.8,0.7,20.5,2.1
					c6.5,1.3,13,3.3,19.1,5.9c6,2.6,11.9,5.7,17.3,9.4c5.4,3.6,10.5,7.8,15.1,12.4c4.6,4.6,8.8,9.7,12.4,15.1
					c3.7,5.4,6.8,11.3,9.4,17.3c2.6,6.1,4.6,12.6,5.9,19.1c1.4,6.7,2.1,13.6,2.1,20.5s-0.7,13.8-2.1,20.5c-1.3,6.5-3.3,13-5.9,19.1
					c-2.6,6-5.7,11.9-9.4,17.3c-3.6,5.4-7.8,10.5-12.4,15.1c-4.6,4.6-9.7,8.8-15.1,12.4c-5.4,3.7-11.3,6.8-17.3,9.4
					c-6.1,2.6-12.6,4.6-19.1,5.9C118.7,206.1,111.8,206.8,104.9,206.8z"/>
				<path class="st2" d="M104.9,203.8c54.5,0,98.9-44.4,98.9-98.9S159.4,6,104.9,6S6,50.4,6,104.9S50.4,203.8,104.9,203.8
					 M104.9,209.8C47,209.8,0,162.8,0,104.9S47,0,104.9,0s104.9,47,104.9,104.9S162.8,209.8,104.9,209.8z"/>
			</g>
		</g>
		<g class="st3">
			<path class="st2" d="M111.5,104.3l20.6-31h7.4l-24.2,36.1l25,37.1h-7.4l-21.3-32l-21.4,32h-7.3l25-37.1L83.5,73.3h7.4
				L111.5,104.3z"/>
		</g>
		<g class="st3">
			<path class="st2" d="M111.5,104.3l20.6-31h7.4l-24.2,36.1l25,37.1h-7.4l-21.3-32l-21.4,32h-7.3l25-37.1L83.5,73.3h7.4
				L111.5,104.3z"/>
		</g>
	</g>
</g>
</svg>
