<svg xmlns="http://www.w3.org/2000/svg" xmlns:xlink="http://www.w3.org/1999/xlink" viewBox="0 0 107 101">
  <defs>
    <style>
      .cls-1 {
        clip-path: url(#clip-Artboard_1);
      }

      .cls-2, .cls-3 {
        fill: #e257a7;
      }

      .cls-3 {
        font-size: 32px;
        font-family: KGAlwaysAGoodTime, KG Always A Good Time;
      }

      .cls-4 {
        fill: rgba(255,255,255,0);
      }
    </style>
    <clipPath id="clip-Artboard_1">
      <rect width="107" height="101"/>
    </clipPath>
  </defs>
  <g id="Artboard_1" data-name="Artboard – 1" class="cls-1">
    <rect class="cls-4" width="107" height="101"/>
    <g id="Group_93" data-name="Group 93" transform="translate(-915 -657)">
      <g id="Group_81" data-name="Group 81" transform="translate(925.15 665.611)">
        <path id="Path_102" data-name="Path 102" class="cls-2" d="M225.591,6.78h-.776a2.805,2.805,0,1,0-.016,0h1.567a5.244,5.244,0,1,1,1.536,3.693,5.207,5.207,0,0,1-1.536-3.693Z" transform="translate(-189.922)"/>
        <path id="Path_103" data-name="Path 103" class="cls-2" d="M128.676,30.78H127.9a6.78,6.78,0,1,0,1.986-4.794A6.78,6.78,0,0,0,127.9,30.78h1.551a5.244,5.244,0,1,1,1.536,3.693,5.207,5.207,0,0,1-1.536-3.693Z" transform="translate(-108.056 -20.276)"/>
        <path id="Path_104" data-name="Path 104" class="cls-2" d="M31.591,54.78h-.776a2.805,2.805,0,1,0-.016,0h1.567A5.244,5.244,0,1,1,33.9,58.473a5.206,5.206,0,0,1-1.536-3.693Z" transform="translate(-26.021 -40.553)"/>
        <path id="Path_105" data-name="Path 105" class="cls-2" d="M307.7,155v28.548h1.552V155" transform="translate(-259.96 -130.952)"/>
        <path id="Path_106" data-name="Path 106" class="cls-2" d="M264.7,270v10.705h1.552V270" transform="translate(-223.632 -228.109)"/>
        <path id="Path_107" data-name="Path 107" class="cls-2" d="M165.7,270v10.705h1.551V270" transform="translate(-139.992 -228.109)"/>
        <path id="Path_108" data-name="Path 108" class="cls-2" d="M66.7,270v10.705h1.551V270" transform="translate(-56.351 -228.109)"/>
        <path id="Path_109" data-name="Path 109" class="cls-2" d="M213.7,155v28.548h1.551V155" transform="translate(-180.544 -130.952)"/>
        <path id="Path_110" data-name="Path 110" class="cls-2" d="M124.7,177v25.134h1.551V177" transform="translate(-105.353 -149.538)"/>
        <path id="Path_111" data-name="Path 111" class="cls-2" d="M26.7,205v20.79h1.552V205" transform="translate(-22.557 -173.194)"/>
        <path id="Path_112" data-name="Path 112" class="cls-2" d="M208.214,125.975c0-.016,1.04-2.126,2.063-4.934a43.528,43.528,0,0,0,1.427-4.608,20.387,20.387,0,0,0,.652-4.7,8.381,8.381,0,0,0-.233-2.11,5.441,5.441,0,0,0-.543-1.4,4.138,4.138,0,0,0-.667-.884,4.2,4.2,0,0,0-1.458-.931,5.778,5.778,0,0,0-1.939-.31H192.994v.776l.031-.776h-.047a4.547,4.547,0,0,0-.962.124,4.506,4.506,0,0,0-2.157,1.195,5.154,5.154,0,0,0-1.195,1.893,8.636,8.636,0,0,0-.465,2.979,20.27,20.27,0,0,0,.915,5.57,55.1,55.1,0,0,0,3.227,8.192l1.4-.667a54.821,54.821,0,0,1-3.15-7.944,19.087,19.087,0,0,1-.869-5.151,6.513,6.513,0,0,1,.512-2.762,3.351,3.351,0,0,1,.76-1.086,3.029,3.029,0,0,1,1.257-.7,2.623,2.623,0,0,1,.714-.109h0v-.372l.016.372h0v0h14.553a3.764,3.764,0,0,1,1.6.295,2.264,2.264,0,0,1,.76.543,3.05,3.05,0,0,1,.7,1.319,7.221,7.221,0,0,1,.233,1.939,18.9,18.9,0,0,1-.621,4.329,48.2,48.2,0,0,1-2.11,6.346c-.357.869-.667,1.6-.9,2.095-.109.248-.2.45-.264.59l-.078.155a.048.048,0,0,0-.016.031v.016l1.381.683Z" transform="translate(-159.001 -89.639)"/>
        <path id="Path_113" data-name="Path 113" class="cls-2" d="M110.747,119.2a9.921,9.921,0,0,1-.993.047c-.7,0-1.443-.062-2.219-.124s-1.567-.124-2.358-.124a10.5,10.5,0,0,0-1.567.109,5.559,5.559,0,0,0-2.219.807,4.22,4.22,0,0,0-.931.822,5,5,0,0,0-.729,1.148l.7.341-.683-.357a8.538,8.538,0,0,0-.946,4.018,15.615,15.615,0,0,0,.76,4.484c.434,1.458.962,2.87,1.381,4.189l.016.031.016.031a39.813,39.813,0,0,0,2.095,4.639l1.35-.76a37.409,37.409,0,0,1-2.017-4.437l-.714.295.745-.233c-.434-1.365-.962-2.762-1.365-4.158a14.706,14.706,0,0,1-.7-4.049,6.945,6.945,0,0,1,.776-3.3v-.031a3.424,3.424,0,0,1,.714-1.008,3.132,3.132,0,0,1,.652-.465,4.116,4.116,0,0,1,1.21-.4,8.959,8.959,0,0,1,1.489-.109c.7,0,1.458.062,2.234.124s1.551.124,2.327.124a9.745,9.745,0,0,0,1.164-.062l-.186-1.583Z" transform="translate(-83.471 -100.537)"/>
        <path id="Path_114" data-name="Path 114" class="cls-2" d="M11.947,150.1a9.921,9.921,0,0,1-.993.047c-.7,0-1.443-.062-2.219-.124s-1.567-.124-2.358-.124a10.5,10.5,0,0,0-1.567.109,5.559,5.559,0,0,0-2.219.807,4.22,4.22,0,0,0-.931.822,5,5,0,0,0-.729,1.148l.7.341-.683-.357A8.538,8.538,0,0,0,0,156.789a15.615,15.615,0,0,0,.76,4.484c.434,1.458.962,2.87,1.381,4.189l.016.031.016.031a39.813,39.813,0,0,0,2.095,4.639l1.35-.76A37.411,37.411,0,0,1,3.6,164.965l-.714.295.745-.233c-.434-1.365-.962-2.762-1.365-4.158a14.706,14.706,0,0,1-.7-4.049,6.945,6.945,0,0,1,.776-3.3v-.031a3.424,3.424,0,0,1,.714-1.008,3.131,3.131,0,0,1,.652-.465,4.115,4.115,0,0,1,1.21-.4,8.959,8.959,0,0,1,1.489-.109c.7,0,1.458.062,2.234.124s1.552.124,2.327.124a9.748,9.748,0,0,0,1.164-.062l-.186-1.583Z" transform="translate(0 -126.643)"/>
        <path id="Path_115" data-name="Path 115" class="cls-2" d="M332.984,30.78h-.776a5.244,5.244,0,1,1-1.536-3.693,5.206,5.206,0,0,1,1.536,3.693h1.552a6.78,6.78,0,1,0-1.986,4.794,6.78,6.78,0,0,0,1.986-4.794Z" transform="translate(-270.521 -20.276)"/>
        <path id="Path_116" data-name="Path 116" class="cls-2" d="M429.984,54.78h-.776a5.244,5.244,0,1,1-1.536-3.693,5.207,5.207,0,0,1,1.536,3.693h1.552a6.78,6.78,0,1,0-1.986,4.794,6.78,6.78,0,0,0,1.986-4.794Z" transform="translate(-352.471 -40.553)"/>
        <path id="Path_117" data-name="Path 117" class="cls-2" d="M358.7,270v10.705h1.551V270" transform="translate(-303.048 -228.109)"/>
        <path id="Path_118" data-name="Path 118" class="cls-2" d="M457.7,270v10.705h1.551V270" transform="translate(-386.688 -228.109)"/>
        <path id="Path_119" data-name="Path 119" class="cls-2" d="M399.7,177v25.134h1.551V177" transform="translate(-337.686 -149.538)"/>
        <path id="Path_120" data-name="Path 120" class="cls-2" d="M497.7,205v20.79h1.552V205" transform="translate(-420.482 -173.194)"/>
        <path id="Path_121" data-name="Path 121" class="cls-2" d="M358.5,120.738a9.574,9.574,0,0,0,1.164.062c.776,0,1.567-.062,2.327-.124.776-.062,1.536-.124,2.234-.124a9.161,9.161,0,0,1,1.334.093,4.152,4.152,0,0,1,1.6.559,3.314,3.314,0,0,1,.621.543,3.611,3.611,0,0,1,.512.807v.031a7.132,7.132,0,0,1,.776,3.3,14.7,14.7,0,0,1-.7,4.049c-.4,1.381-.931,2.777-1.365,4.158l.745.233-.714-.295a34.107,34.107,0,0,1-2.017,4.437l1.35.76a36.38,36.38,0,0,0,2.095-4.639l.016-.031.016-.031c.419-1.319.946-2.731,1.381-4.189a16.364,16.364,0,0,0,.76-4.484,8.538,8.538,0,0,0-.946-4.018L369,122.2l.7-.341a5.026,5.026,0,0,0-1.024-1.443,4.342,4.342,0,0,0-.993-.714,5.471,5.471,0,0,0-1.676-.559,9.5,9.5,0,0,0-1.769-.14c-.791,0-1.583.062-2.358.124s-1.521.124-2.219.124c-.341,0-.683-.016-.993-.047l-.171,1.536Z" transform="translate(-302.879 -100.537)"/>
        <path id="Path_122" data-name="Path 122" class="cls-2" d="M457.3,151.738a9.574,9.574,0,0,0,1.164.062c.776,0,1.567-.062,2.327-.124.776-.062,1.536-.124,2.234-.124a9.162,9.162,0,0,1,1.334.093,4.152,4.152,0,0,1,1.6.559,3.314,3.314,0,0,1,.621.543,3.61,3.61,0,0,1,.512.807v.031a7.132,7.132,0,0,1,.776,3.3,14.7,14.7,0,0,1-.7,4.049c-.4,1.381-.931,2.777-1.365,4.158l.745.233-.714-.295a34.111,34.111,0,0,1-2.017,4.437l1.35.76a36.388,36.388,0,0,0,2.095-4.639l.015-.031.016-.031c.419-1.319.946-2.731,1.381-4.189a16.364,16.364,0,0,0,.76-4.484,8.538,8.538,0,0,0-.946-4.018l-.683.357.7-.341a5.028,5.028,0,0,0-1.024-1.443,4.343,4.343,0,0,0-.993-.714,5.47,5.47,0,0,0-1.676-.559,9.5,9.5,0,0,0-1.769-.14c-.791,0-1.583.062-2.358.124s-1.521.124-2.219.124c-.341,0-.683-.016-.993-.047l-.171,1.536Z" transform="translate(-386.35 -126.728)"/>
      </g>
      <text id="time" class="cls-3" transform="translate(968.666 749.394)"><tspan x="-30.297" y="0">time</tspan></text>
    </g>
  </g>
</svg>
