<?xml version="1.0" encoding="utf-8"?>
<!-- Generator: Adobe Illustrator 21.1.0, SVG Export Plug-In . SVG Version: 6.00 Build 0)  -->
<svg version="1.1" id="Camada_1" xmlns="http://www.w3.org/2000/svg" xmlns:xlink="http://www.w3.org/1999/xlink" x="0px" y="0px"
	 viewBox="0 0 69 107.8" style="enable-background:new 0 0 69 107.8;" xml:space="preserve">
<style type="text/css">
	.st0{fill:#C65696;}
</style>
<path class="st0" d="M14.1,29.7c-2.8,2.8-2.8,7.6,0,10.5c3,3,7.6,3,10.6,0c3-3,3-7.6,0-10.5C21.7,26.7,17.1,26.7,14.1,29.7z"/>
<path class="st0" d="M14.1,65.1c-3,3-3,7.6,0,10.6c2.8,2.8,7.6,2.8,10.5,0c3-3,3-7.6,0-10.6C21.7,62.1,17.1,62.1,14.1,65.1z"/>
<path class="st0" d="M42.2,7.9c-2.6-2.7-3.8-2.5-6.9,0.2l-0.9,0.8c-3,2.7-2.9,3.8-0.5,6.6c8.7,9.6,13,21.9,13,37.1
	c0,15.3-4.4,27.7-13.2,37.1c-2.6,3-2.4,3.7,0.6,6.5l1,0.9c3.1,2.8,3.8,3,6.8,0.3c11-11.4,16.6-26.3,16.6-44.8
	C58.6,34.5,53.2,19.6,42.2,7.9z"/>
</svg>
