<svg xmlns="http://www.w3.org/2000/svg" xmlns:xlink="http://www.w3.org/1999/xlink" viewBox="0 0 221 221"><defs><style>.a{clip-path:url(#b);}.b{fill:#e257a7;}.c{fill:rgba(255,255,255,0);}</style><clipPath id="b"><rect width="221" height="221"/></clipPath></defs><g id="a" class="a"><rect class="c" width="221" height="221"/><g transform="translate(0 28.012)"><path class="b" d="M183.99,221.781H6.641A6.689,6.689,0,0,1,0,215.141V36.641A6.689,6.689,0,0,1,6.641,30H119.974a6.641,6.641,0,0,1,0,13.281H13.281v165.13H177.349V101.276a6.641,6.641,0,1,1,13.281,0V215.141A6.689,6.689,0,0,1,183.99,221.781Z" transform="translate(0 -30)"/></g><g transform="translate(138.391 1.449)"><path class="b" d="M232.269,81.547a6.689,6.689,0,0,1-6.64-6.641V13.281H162.941A6.689,6.689,0,0,1,156.3,6.641,6.689,6.689,0,0,1,162.941,0h69.328a6.689,6.689,0,0,1,6.641,6.641V74.906A6.689,6.689,0,0,1,232.269,81.547Z" transform="translate(-156.3)"/></g><g transform="translate(91.143 4.139)"><path class="b" d="M109.545,127.583a6.423,6.423,0,0,1-4.693-1.948,6.6,6.6,0,0,1,.089-9.385L217.212,4.952a6.637,6.637,0,0,1,9.3,9.474L114.238,125.635A6.957,6.957,0,0,1,109.545,127.583Z" transform="translate(-102.937 -3.037)"/></g></g></svg>