<?xml version="1.0" encoding="utf-8"?>
<!-- Generator: Adobe Illustrator 21.1.0, SVG Export Plug-In . SVG Version: 6.00 Build 0)  -->
<svg version="1.1" id="Camada_1" xmlns="http://www.w3.org/2000/svg" xmlns:xlink="http://www.w3.org/1999/xlink" x="0px" y="0px"
	 viewBox="0 0 63.3 58.6" style="enable-background:new 0 0 63.3 58.6;" xml:space="preserve">
<style type="text/css">
	.st0{fill:#E257A6;}
	.st1{fill:#FFFFFF;}
</style>
<title>eixo</title>
<path class="st0" d="M59.1,29.3c0-15.2-12.3-27.5-27.5-27.5C16.5,1.8,4.2,14.1,4.2,29.3s12.3,27.5,27.5,27.5
	C46.8,56.8,59.1,44.5,59.1,29.3"/>
<path class="st1" d="M55.9,29.3C55.9,15.9,45,5.1,31.7,5.1C18.3,5.1,7.5,15.9,7.5,29.3s10.8,24.2,24.2,24.2
	C45,53.5,55.9,42.6,55.9,29.3"/>
<path class="st0" d="M51,29.3c0-10.7-8.7-19.4-19.4-19.4s-19.4,8.7-19.4,19.4s8.7,19.4,19.4,19.4C42.4,48.6,51,40,51,29.3"/>
<path class="st1" d="M43.1,29.3c0-6.3-5.1-11.5-11.5-11.5c-6.3,0-11.5,5.1-11.5,11.5c0,6.3,5.1,11.5,11.5,11.5
	C38,40.7,43.1,35.6,43.1,29.3"/>
</svg>
