<?xml version="1.0" encoding="utf-8"?>
<!-- Generator: Adobe Illustrator 21.1.0, SVG Export Plug-In . SVG Version: 6.00 Build 0)  -->
<svg version="1.1" id="Camada_1" xmlns="http://www.w3.org/2000/svg" xmlns:xlink="http://www.w3.org/1999/xlink" x="0px" y="0px"
	 viewBox="0 0 63.3 58.6" style="enable-background:new 0 0 63.3 58.6;" xml:space="preserve">
<style type="text/css">
	.st0{fill:#4D4D4C;}
	.st1{fill:#C4C4C4;}
	.st2{fill:#9C9B9B;}
	.st3{fill:#FFFFFF;}
	.st4{fill:url(#SVGID_1_);}
</style>
<title>eixo</title>
<path class="st0" d="M59.1,29.3c0-15.2-12.3-27.5-27.5-27.5C16.5,1.8,4.2,14.1,4.2,29.3c0,15.2,12.3,27.5,27.5,27.5
	C46.8,56.8,59.1,44.5,59.1,29.3"/>
<path class="st1" d="M55.9,29.3C55.9,15.9,45,5.1,31.7,5.1C18.3,5.1,7.5,15.9,7.5,29.3c0,13.4,10.8,24.2,24.2,24.2
	C45,53.5,55.9,42.6,55.9,29.3"/>
<path class="st2" d="M51,29.3c0-10.7-8.7-19.4-19.4-19.4c-10.7,0-19.4,8.7-19.4,19.4c0,10.7,8.7,19.4,19.4,19.4
	C42.4,48.6,51,40,51,29.3"/>
<path class="st3" d="M43.1,29.3c0-6.3-5.1-11.5-11.5-11.5c-6.3,0-11.5,5.1-11.5,11.5c0,6.3,5.1,11.5,11.5,11.5
	C38,40.7,43.1,35.6,43.1,29.3"/>
<linearGradient id="SVGID_1_" gradientUnits="userSpaceOnUse" x1="32.0225" y1="23.5732" x2="32.0225" y2="34.8734" gradientTransform="matrix(1 0 0 -1 0 60)">
	<stop  offset="0" style="stop-color:#F0C61F"/>
	<stop  offset="1" style="stop-color:#ED8538"/>
</linearGradient>
<path class="st4" d="M33.9,38.2c-0.1,0.1-0.1,0.2-0.2,0.3c0,0-0.1,0-0.1,0h-2.5c-0.2,0-0.3,0-0.4-0.2c-0.2-0.2-0.3-0.4-0.5-0.7
	c-0.1-0.2-0.3-0.5-0.4-0.7c-0.1-0.2-0.1-0.3-0.2-0.5c-0.1-0.2-0.1-0.4-0.2-0.6c0-0.1,0-0.3-0.1-0.4c0-0.3,0-0.6,0-0.9
	c0-0.2,0.1-0.8,0.2-1c0.1-0.2,0.1-0.4,0.2-0.6c0.1-0.2,0.4-0.9,0.5-1c0.1-0.1,0.2-0.3,0.3-0.5c0.1-0.2,0.2-0.4,0.4-0.6
	c0.2-0.3,0.5-0.6,0.7-0.9c0.1-0.1,0.1-0.2,0.2-0.2c0,0.1,0.1,0.2,0.1,0.3c0,0.1,0.1,0.2,0.1,0.3c0.1,0.3,0.3,0.5,0.4,0.8
	c0.1,0.1,0.2,0.2,0.3,0.4c0.1,0.1,0.2,0.2,0.3,0.3c0.2,0.2,0.4,0.5,0.5,0.7c0.2,0.3,0.4,0.6,0.6,1c0.1,0.2,0.1,0.3,0.2,0.5
	c0,0.1,0.2,0.7,0.2,0.8c0,0.2,0,0.4,0,0.6c0,0.2-0.1,0.8-0.1,1c0,0.1-0.1,0.3-0.1,0.4C34.4,37.1,34,38,33.9,38.2z M37.9,33.7
	c0,0.2,0,0.4-0.1,0.7c-0.1,0.3-0.1,0.6-0.3,0.9c-0.1,0.1-0.1,0.3-0.2,0.4c-0.2,0.3-0.4,0.7-0.6,1l-0.3,0.5c-0.1,0.1-0.2,0.3-0.3,0.4
	c-0.2,0.2-0.4,0.4-0.6,0.6c-0.1,0.1-0.3,0.3-0.4,0.4c0,0-1,0-0.9,0c0.1-0.2,0.5-1.1,0.6-1.3c0.1-0.2,0.1-0.4,0.2-0.6s0-0.3,0.1-0.4
	c0-0.3,0.1-0.6,0-0.8c0-0.1,0-0.1,0-0.2c0-0.1,0-0.2,0-0.3c0-0.1,0-0.3-0.1-0.4c-0.1-0.2-0.1-0.4-0.2-0.6c-0.1-0.2-0.1-0.3-0.2-0.5
	c-0.1-0.3-0.3-0.6-0.5-0.9l-0.5-0.6L33.1,31c-0.2-0.3-0.4-0.6-0.5-0.9c-0.1-0.2-0.2-0.4-0.3-0.6c-0.1-0.2-0.2-0.4-0.2-0.6
	c-0.2,0.1-0.3,0.2-0.4,0.4c-0.3,0.3-0.5,0.6-0.8,1c-0.2,0.3-0.4,0.6-0.7,0.9c-0.2,0.3-0.3,0.5-0.5,0.8c-0.1,0.2-0.2,0.5-0.3,0.7
	c-0.1,0.2-0.2,0.4-0.2,0.6c-0.1,0.2-0.1,0.4-0.1,0.6C29,34.4,29,34.8,29,35.2c0,0.2,0,0.4,0.1,0.6c0,0.2,0.1,0.4,0.1,0.5
	c0,0.2,0.1,0.3,0.1,0.5c0.1,0.2,0.1,0.3,0.2,0.5c0.1,0.1,0.1,0.3,0.2,0.4c0.1,0.2,0.3,0.5,0.4,0.7l0.2,0.3c0,0-1,0-1,0
	c-0.1,0-0.1,0-0.2-0.1c-0.3-0.2-0.5-0.4-0.7-0.7l-0.3-0.3c-0.2-0.2-0.4-0.5-0.6-0.7c-0.2-0.2-0.3-0.5-0.5-0.8
	c-0.1-0.1-0.1-0.3-0.2-0.4c-0.1-0.3-0.3-0.6-0.4-0.9c-0.1-0.2-0.3-1.1-0.3-1.3c-0.1-0.6-0.2-1.2-0.1-1.9c0-0.2,0-0.5,0.1-0.7
	c0-0.1,0-0.3,0.1-0.4c0.1-0.2,0.1-0.4,0.2-0.7c0.1-0.3,0.2-0.6,0.4-0.9c0.1-0.2,0.2-0.5,0.4-0.7c0.2-0.4,1.7-2.7,1.7-2.7
	c0.2-0.3,0.4-0.6,0.5-0.8c0.1-0.1,0.2-0.2,0.2-0.4l0.3-0.5c0.2-0.4,0.5-0.8,0.7-1.2c0.1-0.2,0.3-0.5,0.3-0.7
	c0.1-0.2,0.1-0.4,0.1-0.5c0-0.2,0.1-0.5,0.1-0.7c0-0.1,0-0.3,0.1-0.4c0,0,0,0,0,0c0,0,0,0,0,0c0.2,0.2,0.3,0.4,0.4,0.6
	c0.1,0.2,0.2,0.4,0.3,0.6c0.1,0.3,0.2,0.6,0.3,0.9c0.1,0.3,0.1,0.5,0.2,0.8c0.1,0.4,0.1,0.7,0.1,1.1c0,0.3-0.1,0.6-0.2,1
	c-0.1,0.2-0.1,0.3-0.2,0.5c0,0,0,0,0,0.1c0,0,0,0,0.1,0c0.3-0.1,0.6-0.4,0.9-0.7c0.2-0.2,0.4-0.8,0.5-0.8c0,0,0.2-0.8,0.3-1.1
	c0-0.1,0-0.1,0.1,0c0.2,0.1,0.3,0.3,0.5,0.5c0.1,0.1,0.2,0.3,0.2,0.4c0,0.1,0.2,0.5,0.2,0.6c0.1,0.2,0.2,1,0.3,1.3
	c0,0.1,0.2,0.8,0.2,1c0,0.1,0,0.2,0.1,0.3c0,0,0,0.1,0,0.1l0,0c0,0.1,0.1,0.2,0.1,0.3c0.1,0.2,0.1,0.5,0.2,0.7
	c0.1,0.3,0.3,0.6,0.5,0.9c0.2,0.3,0.4,0.7,0.7,1c0.1,0.2,0.2,0.4,0.3,0.7s0.2,0.4,0.3,0.6c0.1,0.2,0.1,0.4,0.2,0.6
	C37.9,32.6,38,33.1,37.9,33.7z M28,27L28,27z M35.4,27.1L35.4,27.1z M35.5,27.3L35.5,27.3L35.5,27.3C35.5,27.3,35.4,27.3,35.5,27.3
	L35.5,27.3z"/>
</svg>
