<?xml version="1.0" encoding="utf-8"?>
<!-- Generator: Adobe Illustrator 21.1.0, SVG Export Plug-In . SVG Version: 6.00 Build 0)  -->
<svg version="1.1" id="Camada_1" xmlns="http://www.w3.org/2000/svg" xmlns:xlink="http://www.w3.org/1999/xlink" x="0px" y="0px"
	 viewBox="0 0 78.6 56.6" style="enable-background:new 0 0 78.6 56.6;" xml:space="preserve">
<style type="text/css">
	.st0{fill:#ED863A;}
	.st1{fill:#F9C32A;}
	.st2{fill:url(#SVGID_1_);}
	.st3{fill:url(#SVGID_2_);}
</style>
<title>logo</title>
<g id="Camada_1_1_">
	<path class="st0" d="M25.6,47.1c0,0.4,0,0.8,0,1.1c-0.1,1.7-0.1,3.3-0.2,5c0,0.3,0,0.3-0.3,0.3h-1.3c-0.1,0-0.1,0-0.1-0.2
		c0.1-1.6,0.2-3.1,0.2-4.7c0-1,0.1-2,0.1-3c0-0.4,0.1-0.7,0.3-1c0.1-0.2,0.4-0.3,0.6-0.3c0.7-0.1,1.3,0.3,1.5,0.9
		c0.4,0.8,0.7,1.7,1,2.5l0.8,2.2l0,0c0.3-0.8,0.7-1.7,1-2.5s0.6-1.5,0.9-2.3c0.2-0.4,0.5-0.7,0.9-0.8c0.4-0.1,0.8-0.1,1.1,0.2
		c0.2,0.2,0.3,0.4,0.3,0.6c0.1,0.7,0.1,1.3,0.1,2c0,1.1,0.1,2.2,0.1,3.4c0,0.9,0.1,1.8,0.1,2.7c0,0.3,0,0.3-0.3,0.3h-1.3
		c-0.1,0-0.1,0-0.1-0.2c0-0.7,0-1.3-0.1-2c0-1-0.1-2.1-0.1-3.1c0-0.4,0-0.8-0.1-1.2L30.6,48c-0.3,0.9-0.6,1.8-1,2.7
		c-0.1,0.4-0.3,0.8-0.5,1.2c-0.2,0.4-0.7,0.6-1.1,0.5c-0.3-0.1-0.5-0.3-0.6-0.5c-0.4-0.9-0.7-1.8-1.1-2.8
		C26.1,48.4,25.8,47.8,25.6,47.1L25.6,47.1z"/>
	<path class="st0" d="M15.1,49c0,1.5,0,2.9,0,4.4c0,0.1,0,0.2-0.1,0.2h-1.5c-0.1,0-0.1,0-0.2-0.2c0-1.2,0-2.4,0-3.6
		c0-0.1,0-0.1-0.1-0.1h-3c-0.1,0-0.2,0-0.2,0.2c0,1.2,0,2.3,0,3.5c0,0.2,0,0.2-0.2,0.2H8.4c-0.1,0-0.2,0-0.2-0.2c0-2.5,0-5,0-7.5
		c0-0.4,0-0.8,0-1.3c0-0.1,0-0.2,0.1-0.2h1.6c0.1,0,0.1,0,0.1,0.2c0,1.1,0,2.2,0,3.4c0,0.1,0,0.2,0.2,0.2c1,0,2,0,3,0
		c0.1,0,0.1,0,0.1-0.1c0-1.1,0-2.2,0-3.3c0-0.3,0-0.3,0.3-0.3H15c0.1,0,0.2,0,0.2,0.2C15.2,46.1,15.2,47.6,15.1,49L15.1,49z"/>
	<path class="st0" d="M41.3,53.5c-0.1,0-0.2,0-0.3,0h-1.5c-0.1,0-0.2,0-0.2-0.1c0,0,0,0,0,0c-0.1-0.4-0.3-0.9-0.4-1.3
		c-0.1-0.2-0.1-0.5-0.2-0.7c0-0.1-0.1-0.1-0.2-0.1h-2.8c-0.1,0-0.1,0-0.2,0.1c-0.1,0.4-0.2,0.7-0.3,1.1s-0.2,0.6-0.3,0.9
		c0,0.1-0.1,0.2-0.2,0.2c0,0,0,0,0,0h-1.6c-0.1,0-0.1,0-0.1-0.2l0.4-1.3c0.2-0.5,0.3-1,0.5-1.4s0.3-0.9,0.5-1.4l0.5-1.3
		c0.3-0.8,0.5-1.6,0.8-2.4c0.1-0.4,0.4-0.8,0.7-1c0.4-0.3,1-0.3,1.4,0c0.4,0.2,0.7,0.6,0.8,1.1c0.2,0.5,0.3,1,0.5,1.4
		s0.4,1.2,0.6,1.8c0.1,0.3,0.2,0.5,0.3,0.8s0.3,0.8,0.4,1.2l0.7,2.2c0,0.1,0,0.2,0.1,0.3L41.3,53.5z M37.1,46.3
		c-0.1,0.1-0.1,0.2-0.1,0.4c-0.2,0.6-0.4,1.2-0.6,1.9c-0.1,0.4-0.2,0.7-0.3,1.1c0,0.1-0.1,0.2-0.1,0.3s0.2,0,0.3,0h1.8
		c0.1,0,0.2,0,0.1-0.1l-0.3-0.9l-0.5-1.7L37.1,46.3z"/>
	<path class="st0" d="M19.4,51.3H18c-0.1,0-0.2,0-0.2,0.1c0,0,0,0,0,0c-0.2,0.7-0.4,1.3-0.6,2c0,0.1-0.1,0.1-0.2,0.1h-1.6
		c-0.1,0-0.1,0-0.1-0.1c0.3-0.9,0.6-1.8,0.9-2.7l0.9-2.5c0.3-0.8,0.5-1.5,0.8-2.3c0.1-0.4,0.3-0.7,0.5-1c0.5-0.6,1.4-0.7,2-0.3
		c0.1,0.1,0.2,0.2,0.3,0.3c0.2,0.3,0.3,0.7,0.4,1.1c0.4,1.1,0.7,2.2,1.1,3.3l0.6,1.9l0.7,2.1c0,0.1,0,0.1-0.1,0.1h-1.7
		c-0.1,0-0.2,0-0.2-0.1c0,0,0,0,0,0c-0.2-0.6-0.4-1.3-0.6-1.9c0-0.1-0.1-0.2-0.2-0.2c0,0,0,0,0,0C20.3,51.3,19.8,51.3,19.4,51.3z
		 M19.4,46.3L19.4,46.3c-0.1,0.5-0.3,0.9-0.4,1.4l-0.6,2.1c0,0.2,0,0.2,0.1,0.2h1.9c0.2,0,0.2,0,0.1-0.2l-0.7-2.4L19.4,46.3z"/>
	<path class="st1" d="M41.3,53.5v-0.2c0-0.2,0.1-0.3,0.1-0.5c0-0.6,0.1-1.2,0.1-1.8c0-0.3,0-0.7,0-1s0-0.5,0-0.8
		c0.1-0.9,0.1-1.7,0.2-2.6c0-0.5,0.1-1,0.1-1.5c0-0.2,0-0.3,0.1-0.5c0.2-0.3,0.6-0.4,0.9-0.2c0,0,0,0,0,0c0.2,0.2,0.4,0.4,0.5,0.7
		c0.2,0.5,0.4,1,0.7,1.5l0.3,0.7l1,2.3l0.5,1.2c0,0,0,0.1,0.1,0.1s0,0,0.1-0.1c0.2-0.5,0.5-1,0.7-1.6c0.3-0.7,0.6-1.4,0.9-2.1
		s0.5-1.1,0.8-1.7c0.1-0.3,0.3-0.6,0.4-0.8c0.2-0.3,0.6-0.4,1-0.2c0,0,0.1,0.1,0.1,0.1c0.1,0.1,0.1,0.2,0.1,0.3
		c0,0.2,0.1,0.4,0.1,0.5c0,0.5,0.1,1,0.1,1.6c0,0.9,0.1,1.8,0.2,2.7c0,0.5,0.1,1,0.1,1.5c0,0.7,0.1,1.5,0.1,2.2c0,0.1,0,0.2-0.2,0.2
		s-0.4,0-0.6,0s-0.2,0-0.2-0.2c0-0.7-0.1-1.4-0.1-2.1s-0.1-1.4-0.1-2.1c0-0.5,0-1-0.1-1.4S49,46.7,49,46.1c0,0,0-0.1,0-0.2l-0.4,1
		L48,48.3l-0.5,1.2l-0.8,1.8c-0.1,0.2-0.2,0.5-0.3,0.7c-0.1,0.2-0.5,0.3-0.7,0.2c-0.1,0-0.1-0.1-0.2-0.2c-0.1-0.1-0.2-0.3-0.2-0.4
		c-0.2-0.4-0.3-0.8-0.5-1.2s-0.4-1-0.7-1.5c-0.3-0.7-0.6-1.4-0.9-2.1c-0.1-0.3-0.3-0.6-0.4-0.9v0.7c-0.1,1-0.1,2-0.2,2.9
		c0,0.5,0,0.9-0.1,1.4c0,0.7-0.1,1.4-0.1,2.1c0,0.1,0,0.2,0,0.4c0,0.1,0,0.1-0.1,0.1C41.9,53.6,41.6,53.6,41.3,53.5z"/>
	<path class="st0" d="M1.8,49c0-0.7,0-1.3,0.1-2c0.1-0.7,0.4-1.3,0.8-1.8c0.3-0.3,0.7-0.6,1.2-0.7c1-0.2,1.9-0.3,2.9-0.1
		c0.3,0,0.7,0.1,1,0.2c0.1,0,0.1,0.1,0.1,0.2c0,0.4-0.1,0.8-0.1,1.2c0,0.1,0,0.1-0.1,0.1L6.4,46c-0.5-0.1-0.9,0-1.4,0
		c-0.7,0.2-1.1,0.7-1.2,1.4c-0.1,0.9-0.1,1.9,0,2.8c0,0.5,0.2,0.9,0.5,1.3C4.5,51.8,4.7,51.9,5,52c0.4,0.1,0.9,0.1,1.3,0.1
		c0.4,0,0.9,0,1.3-0.1c0.1,0,0.1,0,0.1,0.1c0,0.4,0.1,0.8,0.1,1.2c0,0.1,0,0.1-0.1,0.1c-0.4,0.1-0.8,0.2-1.2,0.2
		c-0.7,0.1-1.3,0.1-2,0c-0.6-0.1-1.2-0.3-1.7-0.7c-0.4-0.4-0.7-0.9-0.8-1.4C1.9,50.7,1.8,49.9,1.8,49z"/>
	<path class="st1" d="M57.8,45.8c0,0.4,0,0.7,0,1c0,2.1,0,4.2,0,6.3c0,0.1,0,0.2,0,0.3c0,0.2-0.1,0.2-0.2,0.2H57
		c-0.1,0-0.1,0-0.1-0.1c0-2.8,0-5.6,0-8.4c0-0.2,0.1-0.4,0.2-0.5c0.3-0.2,0.6-0.2,0.8,0c0.2,0.2,0.4,0.4,0.5,0.6
		c0.3,0.4,0.5,0.8,0.8,1.3c0.4,0.7,0.8,1.3,1.2,1.9s0.9,1.5,1.4,2.2l1,1.6l0.1,0.1c0-0.2,0-0.3,0-0.5c0-2.4,0-4.7,0-7.1
		c0-0.2,0-0.2,0.2-0.2h0.6c0.1,0,0.2,0,0.2,0.1c0,0.4,0,0.7,0,1.1c0,2.3,0,4.6,0,6.9c0,0.2,0,0.3,0,0.5c0,0.3-0.3,0.6-0.6,0.6
		c-0.1,0-0.3,0-0.4-0.1c-0.3-0.2-0.5-0.4-0.6-0.7l-1.4-2.3l-1.4-2.2l-1-1.6c-0.2-0.3-0.3-0.5-0.5-0.8L57.8,45.8z"/>
	<path class="st1" d="M69.8,49.1c0-0.5,0-1,0.1-1.6c0-0.6,0.2-1.3,0.5-1.8c0.3-0.5,0.8-0.9,1.4-1.1c0.8-0.2,1.6-0.3,2.4-0.1
		c0.5,0,0.9,0.2,1.3,0.4c0.4,0.2,0.7,0.6,0.9,1c0.2,0.4,0.3,0.8,0.3,1.2c0.1,0.9,0.2,1.8,0.1,2.6c0,0.5-0.1,1-0.2,1.5
		c-0.1,0.6-0.3,1.1-0.6,1.5c-0.3,0.3-0.6,0.6-1,0.7c-0.8,0.3-1.6,0.3-2.5,0.2c-0.4,0-0.8-0.2-1.2-0.3c-0.4-0.2-0.8-0.5-1-1
		c-0.2-0.5-0.4-1-0.5-1.5C69.8,50.3,69.8,49.7,69.8,49.1z M75.8,49.1c0-0.7,0-1.4-0.1-2.2c-0.1-0.4-0.2-0.7-0.5-1
		c-0.4-0.4-1-0.6-1.5-0.6c-0.3,0-0.7,0-1,0c-0.4,0.1-0.8,0.3-1.2,0.6c-0.4,0.4-0.5,1-0.6,1.6c-0.1,0.7-0.1,1.4-0.1,2.2
		c0,0.6,0,1.3,0.2,1.9c0.1,0.3,0.3,0.6,0.5,0.8c0.3,0.2,0.6,0.4,1,0.5c0.6,0.1,1.2,0.1,1.8-0.1c0.5-0.2,0.9-0.5,1.1-1
		c0.2-0.5,0.3-1,0.3-1.5C75.8,49.8,75.7,49.4,75.8,49.1L75.8,49.1z"/>
	<path class="st1" d="M51.1,49c0-0.9,0-1.9,0-2.8c0-0.7,0.4-1.3,1-1.5c0.3-0.1,0.7-0.2,1-0.2c1,0,2,0,3,0c0.1,0,0.2,0,0.2,0.2
		c0,0.1,0,0.3,0,0.4c0,0.1,0,0.2-0.2,0.2h-2.5c-0.3,0-0.6,0.1-0.9,0.2c-0.3,0.1-0.5,0.4-0.5,0.7c-0.1,0.8-0.1,1.5-0.1,2.3
		c0,0.1,0,0.1,0.1,0.1H56c0.1,0,0.2,0,0.2,0.2c0,0.2,0,0.3,0,0.5c0,0.1,0,0.1-0.1,0.1h-3.7c-0.1,0-0.2,0-0.2,0.2c0,0.6,0,1.2,0,1.8
		c0,0.3,0,0.6,0.1,0.8c0.1,0.2,0.2,0.3,0.4,0.4c0.3,0.1,0.5,0.2,0.8,0.2c0.9,0,1.8,0,2.6,0c0.2,0,0.2,0,0.2,0.3c0,0.1,0,0.2,0,0.4
		c0,0.1,0,0.1-0.1,0.2c-0.6,0-1.1,0-1.7,0c-0.4,0-0.8,0-1.3,0c-0.5,0-0.9-0.1-1.3-0.3c-0.4-0.2-0.6-0.6-0.7-1
		c-0.1-0.3-0.1-0.5-0.1-0.8C51.1,50.5,51.1,49.8,51.1,49L51.1,49z"/>
	<path class="st1" d="M67.5,49.5c0,1.3,0,2.6,0,4c0,0.1,0,0.2-0.2,0.2h-0.7c-0.1,0-0.2,0-0.2-0.2c0-1.8,0-3.5,0-5.2
		c0-0.9,0-1.8,0-2.7c0-0.2-0.1-0.2-0.2-0.2h-2.1c-0.1,0-0.2,0-0.2-0.2c0-0.2,0-0.3,0-0.5c0-0.1,0-0.2,0.2-0.2h5.7
		c0.1,0,0.2,0,0.2,0.2s0,0.3,0,0.5s0,0.2-0.2,0.2h-2c-0.4,0-0.3,0-0.3,0.3C67.5,46.9,67.5,48.2,67.5,49.5z"/>
	<path class="st0" d="M23.1,41.2c-0.1-0.1-0.2-0.1-0.3-0.2c0,0-0.1,0-0.1,0s0,0.1,0,0.1c0.4,0.4,0.7,0.9,0.8,1.5
		c0,0.1,0,0.1-0.1,0.1h-0.7c-0.1,0-0.1,0-0.1-0.1c-0.1-0.3-0.2-0.5-0.3-0.8s0-0.2-0.3-0.2h-1.2c-0.1,0-0.1,0-0.1-0.1
		s0.1-0.3,0.1-0.5s0.1-0.1,0.1-0.1h1.2c0.1,0,0.2,0,0.3,0.1c0,0,0.1,0,0.1,0s0,0-0.1-0.1c-0.1-0.1-0.2-0.1-0.4-0.1
		c-0.1,0-0.1,0-0.1-0.1c-0.2-0.5-0.3-1.1-0.5-1.6c0-0.1,0-0.2,0-0.3c0-0.2,0.1-0.3,0.2-0.5s0.2-0.2,0.3,0c0.1,0.2,0.2,0.4,0.3,0.6
		c0.2,0.5,0.4,1.1,0.5,1.6C22.9,40.6,23,40.9,23.1,41.2z"/>
	<path class="st0" d="M18.3,40.2c0-0.7,0-1.4,0-2.1c0-0.1,0-0.2,0.2-0.2c0.2,0,0.3,0,0.5,0c0.1,0,0.2,0,0.2,0.2c0,0.7,0,1.4,0,2
		s0,1.5,0,2.3c0,0.1,0,0.2-0.2,0.2h-0.6c-0.1,0-0.1-0.1-0.1-0.2c0-0.4,0-0.8,0-1.2S18.3,40.5,18.3,40.2L18.3,40.2z"/>
	<path class="st0" d="M24.8,40.2c0,0.7,0,1.4,0,2.2c0,0.1,0,0.2-0.2,0.2H24c-0.1,0-0.1,0-0.1-0.1s0-0.2,0-0.3c0-1.3,0-2.7,0-4
		c0-0.1,0-0.2,0.2-0.2l0.6-0.1c0.1,0,0.1,0,0.1,0.1C24.8,38.8,24.8,39.5,24.8,40.2L24.8,40.2z"/>
	<path class="st0" d="M7.7,42.6c-0.3,0-0.7,0-1-0.1c-0.3-0.2-0.5-0.5-0.5-0.9c0-1.1,0-2.3,0-3.4c0-0.2,0-0.2,0.2-0.2
		c0.2,0,0.3,0,0.5,0c0.1,0,0.2,0,0.2,0.2c0,0.5,0,0.9,0,1.4c0,0.6,0,1.2,0,1.8C7,41.8,7.2,42.3,7.7,42.6z"/>
	<path class="st0" d="M10.9,42.6c-0.5,0.1-1,0-1.4-0.4c-0.2-0.3-0.3-0.7-0.3-1.1c0-1,0-2,0-3c0-0.1,0-0.2,0.1-0.2H10
		c0.1,0,0.2,0,0.1,0.2c0,0,0,0.1,0,0.1c0,1,0,1.9,0,2.9c0,0.3,0.1,0.7,0.2,1C10.4,42.3,10.6,42.5,10.9,42.6L10.9,42.6z"/>
	<path class="st0" d="M2.3,42.6H2c-0.1,0-0.1,0-0.1-0.1c0.2-0.6,0.4-1.1,0.6-1.7l0.7-2.2c0-0.1,0.1-0.3,0.2-0.4
		c0.2-0.2,0.4-0.3,0.7-0.3c0,0,0.1,0,0.1,0.1c-0.2,0.3-0.3,0.5-0.3,0.8c-0.2,0.5-0.3,1.1-0.5,1.6L3,41.9c-0.1,0.2-0.1,0.4-0.2,0.6
		s0,0.1-0.1,0.1C2.7,42.6,2.3,42.6,2.3,42.6z"/>
	<path class="st0" d="M19.9,42.6h-0.3c-0.1,0-0.1,0-0.1-0.2c0.2-0.6,0.4-1.1,0.6-1.7s0.5-1.4,0.7-2.1c0.1-0.2,0.1-0.4,0.2-0.5
		c0.2-0.2,0.4-0.3,0.7-0.3c0.1,0,0.1,0,0.1,0.1c-0.2,0.3-0.3,0.7-0.4,1c-0.2,0.5-0.3,1-0.5,1.5s-0.3,1-0.4,1.5
		c0,0.1-0.1,0.3-0.1,0.4s-0.1,0.1-0.1,0.1C20.3,42.6,19.9,42.6,19.9,42.6z"/>
	<path class="st0" d="M13.1,42c0.1-1.2,0.1-2.3,0.2-3.5c0-0.1,0-0.2,0.1-0.3c0.1-0.3,0.4-0.4,0.7-0.2c0.1,0,0.1,0.1,0,0.1
		C14,38.1,14,38.2,14,38.3c0,1.2-0.1,2.5-0.1,3.7c0,0.1,0,0.3,0,0.4s0,0.1-0.1,0.1h-0.6c-0.1,0-0.1,0-0.1-0.1S13.1,42.1,13.1,42
		L13.1,42z"/>
	<path class="st0" d="M12.6,39.6c0,0.5,0,1,0,1.5c0,0.1,0,0.3-0.1,0.4c0,0.2-0.2,0.3-0.4,0.3c-0.2,0-0.4,0-0.6,0c0,0-0.1,0-0.1,0
		s0,0,0,0c0.2-0.1,0.2-0.3,0.2-0.5c0-1,0-2,0-3c0-0.2,0-0.2,0.2-0.2c0.2,0,0.3,0,0.5,0c0.1,0,0.1,0,0.1,0.2c0,0.5,0,1,0,1.5
		L12.6,39.6z"/>
	<path class="st0" d="M17.7,41.6c0,0.3,0,0.5,0,0.8c0,0.1,0,0.2-0.1,0.2H17c-0.1,0-0.1,0-0.1-0.1c0-1-0.1-2-0.1-3
		c0-0.4,0.2-0.9,0.5-1.2c0,0,0.1-0.1,0.1-0.1c0,0,0.1,0,0.1,0.1s0,0.2,0,0.3C17.6,39.5,17.6,40.6,17.7,41.6L17.7,41.6z"/>
	<path class="st0" d="M15.4,41.9c-0.2,0-0.4-0.2-0.5-0.4c0,0,0-0.1,0-0.1c0.3-0.1,0.3-0.3,0.4-0.5l1-2.5c0.1-0.2,0.2-0.3,0.3-0.4
		c0.2-0.2,0.4-0.2,0.7-0.1c0.1,0,0.1,0.1,0,0.1c-0.2,0.1-0.3,0.3-0.4,0.5c-0.3,0.8-0.6,1.6-0.9,2.4c-0.1,0.2-0.1,0.4-0.2,0.6
		C15.8,41.8,15.6,41.9,15.4,41.9z"/>
	<path class="st0" d="M26.1,38.7c0.4,0,0.8,0.3,1,0.7c0.2,0.5-0.1,1.1-0.6,1.3c0,0,0,0,0,0c-0.5,0.1-1,0.2-1.5,0.1
		c-0.1,0-0.1,0-0.1-0.1s0-0.3,0-0.4s0-0.2,0.2-0.2c0.3,0,0.5,0,0.8,0c0.3,0,0.5-0.3,0.5-0.5C26.4,39.3,26.3,38.9,26.1,38.7z"/>
	<path class="st0" d="M4,40.8h0.3c0.5,0,1,0.3,1.2,0.8c0.1,0.3,0.3,0.6,0.3,0.9c0,0.1,0,0.1-0.1,0.1H5.2c-0.1,0-0.2,0-0.2-0.1
		c0,0,0,0,0,0c-0.1-0.3-0.2-0.7-0.3-1c0-0.1-0.1-0.1-0.2-0.1H3.3c-0.2,0-0.2,0-0.1-0.2c0-0.1,0.1-0.2,0.1-0.3c0-0.1,0.1-0.1,0.2-0.1
		L4,40.8L4,40.8z"/>
	<path class="st0" d="M5.5,41.2c-0.1-0.1-0.2-0.2-0.3-0.3c-0.1-0.1-0.3-0.2-0.5-0.2c-0.1,0-0.2-0.1-0.2-0.2c-0.2-0.5-0.3-1-0.5-1.6
		c0-0.1,0-0.2,0-0.4c0-0.2,0.1-0.3,0.2-0.5c0.1-0.1,0.1-0.1,0.2,0c0.1,0.1,0.2,0.3,0.2,0.4c0.2,0.5,0.3,1,0.5,1.6L5.4,41
		C5.4,41.1,5.5,41.1,5.5,41.2z"/>
	<path class="st0" d="M14.1,38.8c0-0.2,0-0.4,0-0.6c0-0.1,0-0.1,0.1-0.2s0.1,0.1,0.1,0.1c0.1,0.3,0.3,0.6,0.4,0.9
		c0.2,0.5,0.4,1,0.6,1.5c0,0.1,0,0.2,0,0.3c0,0.1-0.1,0.2-0.2,0.3c0,0.1-0.1,0.1-0.2,0.1c-0.1,0-0.1-0.1-0.1-0.2
		c-0.2-0.5-0.4-1-0.6-1.5C14.1,39.4,14,39.1,14.1,38.8z"/>
	<path class="st0" d="M26.8,42.6c-0.5,0-0.5,0-0.7-0.4s-0.4-0.8-0.6-1.1c-0.1-0.1,0-0.1,0.1-0.1c0.2,0,0.5,0,0.7-0.1
		c0.1,0,0.1,0,0.1,0.1l0.6,1l0.3,0.5c0,0.1,0.1,0.2-0.1,0.2L26.8,42.6z"/>
	<path class="st0" d="M27.1,39.3c-0.1-0.2-0.2-0.4-0.4-0.5c-0.3-0.2-0.6-0.3-0.9-0.3c-0.3,0-0.7,0-1,0c-0.1,0-0.1,0-0.1-0.1
		s0-0.3,0-0.5s0-0.1,0.1-0.1c0.5-0.1,1.1,0,1.6,0.2c0.3,0.1,0.5,0.4,0.6,0.8C27.2,39,27.2,39.2,27.1,39.3z"/>
	<path class="st0" d="M10.3,41.7c0.3,0.2,0.7,0.2,1,0.1c0.1,0,0.1,0,0.2,0c0.3,0.1,0.6,0.1,0.9-0.1c0,0,0.1,0,0.1,0s0,0.1,0,0.1
		c-0.1,0.3-0.4,0.5-0.7,0.6C11.1,42.7,10.5,42.4,10.3,41.7C10.2,41.8,10.2,41.8,10.3,41.7z"/>
	<path class="st0" d="M7.2,41.8c0.2,0.1,0.4,0.1,0.6,0.1h0.9c0.1,0,0.1,0,0.1,0.1s0,0.3,0,0.4s0,0.1-0.1,0.1c-0.4,0-0.7,0-1.1-0.1
		C7.5,42.4,7.3,42.1,7.2,41.8z"/>
	
		<linearGradient id="SVGID_1_" gradientUnits="userSpaceOnUse" x1="43.14" y1="49.474" x2="43.22" y2="49.474" gradientTransform="matrix(1 0 0 -1 0 58)">
		<stop  offset="0" style="stop-color:#FFFFFF"/>
		<stop  offset="1" style="stop-color:#000000"/>
	</linearGradient>
	<path class="st2" d="M43.2,8.4c-0.1,0,0,0.1-0.1,0.2S43.2,8.5,43.2,8.4z"/>
	
		<linearGradient id="SVGID_2_" gradientUnits="userSpaceOnUse" x1="39.2949" y1="20.39" x2="39.2949" y2="46.63" gradientTransform="matrix(1 0 0 -1 0 58)">
		<stop  offset="0" style="stop-color:#F0C61F"/>
		<stop  offset="1" style="stop-color:#ED8538"/>
	</linearGradient>
	<path class="st3" d="M44.4,40c-0.2,0.6-0.5,1.2-0.9,1.8c-0.1,0.2-0.3,0.4-0.4,0.7c0,0.1-0.1,0.1-0.2,0.1h-5.8
		c-0.4,0.1-0.8-0.1-0.9-0.5c-0.4-0.5-0.8-1-1.1-1.6c-0.3-0.5-0.6-1.1-0.8-1.7c-0.2-0.4-0.3-0.8-0.4-1.2c-0.1-0.4-0.3-0.9-0.3-1.3
		c-0.1-0.3-0.1-0.6-0.2-0.9c-0.1-0.7-0.1-1.4,0-2.1c0-0.4,0.1-0.7,0.2-1.1c0.1-0.4,0.1-0.8,0.2-1.2c0.1-0.4,0.3-0.9,0.4-1.3
		c0.2-0.5,0.4-0.9,0.6-1.4c0.2-0.3,0.3-0.7,0.5-1s0.4-0.8,0.7-1.2s0.6-0.9,0.9-1.3c0.5-0.7,1.1-1.5,1.6-2.2c0.1-0.2,0.3-0.4,0.5-0.6
		c0.1,0.3,0.1,0.5,0.2,0.8c0.1,0.3,0.2,0.5,0.3,0.8c0.3,0.6,0.6,1.2,1,1.8c0.2,0.3,0.4,0.6,0.6,0.9s0.4,0.5,0.6,0.8
		c0.4,0.6,0.8,1.1,1.2,1.6c0.5,0.7,1,1.5,1.3,2.3c0.2,0.4,0.3,0.8,0.5,1.2c0.1,0.3,0.2,0.7,0.3,1s0.1,0.6,0.2,0.9
		c0.1,0.5,0.1,0.9,0.1,1.4c0,0.4,0,0.8-0.1,1.2c0,0.3-0.1,0.7-0.2,1s-0.2,0.7-0.3,1S44.6,39.7,44.4,40z M53,31.2
		c0,0.5-0.1,1-0.2,1.5c-0.1,0.7-0.3,1.4-0.6,2c-0.1,0.3-0.3,0.7-0.4,1c-0.4,0.8-0.8,1.5-1.3,2.3l-0.8,1.1c-0.2,0.3-0.5,0.6-0.8,0.9
		c-0.4,0.5-0.8,1-1.3,1.5c-0.3,0.3-0.6,0.6-0.9,0.9c0,0-0.1,0.1-0.2,0h-1.6c-0.1,0-0.3,0-0.4,0c-0.1,0-0.1,0-0.1-0.1
		c0.3-0.5,0.6-1,0.8-1.6c0.2-0.5,0.4-0.9,0.5-1.4c0.1-0.4,0.3-0.8,0.3-1.3s0.1-0.7,0.2-1c0.1-0.6,0.1-1.3,0.1-1.9c0-0.2,0-0.3,0-0.5
		c0-0.2,0-0.5-0.1-0.7c0-0.3-0.1-0.6-0.2-0.9c-0.1-0.5-0.3-1-0.5-1.5c-0.1-0.4-0.3-0.8-0.5-1.1c-0.3-0.7-0.7-1.4-1.1-2L43,27
		l-1.2-1.9c-0.4-0.7-0.8-1.4-1.2-2.1c-0.2-0.5-0.4-0.9-0.6-1.4s-0.3-1-0.5-1.5c-0.4,0.3-0.7,0.6-1,0.9c-0.6,0.7-1.2,1.5-1.8,2.2
		s-1,1.4-1.5,2.2c-0.4,0.6-0.8,1.3-1.1,1.9c-0.3,0.6-0.5,1.1-0.8,1.7c-0.2,0.5-0.4,1-0.5,1.5s-0.3,1-0.3,1.4
		c-0.2,0.9-0.3,1.8-0.2,2.8c0,0.5,0.1,1,0.2,1.5c0.1,0.4,0.2,0.8,0.3,1.2c0.1,0.4,0.2,0.7,0.3,1.1c0.2,0.4,0.3,0.8,0.4,1.1
		c0.1,0.3,0.3,0.6,0.4,0.9c0.3,0.5,0.6,1.1,0.9,1.6l0.4,0.6c0,0-0.1,0-0.2,0H33c-0.1,0-0.3,0-0.3-0.1c-0.6-0.5-1.2-1-1.7-1.6
		l-0.6-0.7c-0.5-0.5-0.9-1.1-1.3-1.7c-0.4-0.6-0.7-1.2-1-1.8c-0.2-0.3-0.3-0.6-0.5-0.9c-0.3-0.7-0.6-1.4-0.9-2.1
		c-0.2-0.5-0.3-1-0.5-1.6c-0.1-0.5-0.2-1-0.3-1.5c-0.3-1.4-0.4-2.9-0.3-4.3c0-0.5,0.1-1.1,0.2-1.6c0.1-0.3,0.1-0.7,0.2-1
		c0.1-0.5,0.3-1,0.4-1.5c0.3-0.7,0.6-1.5,0.9-2.1c0.3-0.5,0.6-1.1,0.9-1.6c0.5-0.8,1-1.6,1.4-2.4l0,0l0,0v-0.1
		c0.1-0.2,0.3-0.5,0.4-0.7c0,0,0,0,0-0.1c0-0.1,0.1-0.2,0.2-0.3l0.1-0.1c0-0.1,0.1-0.2,0.2-0.3l0.3-0.5c0.1-0.1,0.2-0.3,0.3-0.4l0,0
		l1-1.5c0.4-0.6,0.8-1.3,1.3-1.9c0.2-0.3,0.4-0.6,0.5-0.8l0.7-1.2c0.6-0.9,1.1-1.9,1.6-2.9c0.3-0.6,0.6-1.1,0.8-1.7
		c0.1-0.4,0.2-0.8,0.3-1.3c0.1-0.6,0.1-1.2,0.2-1.7c0-0.3,0.1-0.6,0.2-1c0,0,0-0.1,0-0.1s0.1,0,0.1,0.1c0.4,0.5,0.7,1,0.9,1.5
		c0.3,0.5,0.4,1,0.6,1.5c0.3,0.7,0.5,1.4,0.8,2.1c0.2,0.6,0.3,1.2,0.4,1.8c0.1,0.8,0.2,1.7,0.1,2.5c0,0.8-0.2,1.5-0.4,2.2
		c-0.1,0.4-0.3,0.7-0.4,1.1c0,0,0,0.1,0,0.1s0.1,0,0.1,0c0.8-0.3,1.5-0.8,2-1.6c0.4-0.5,0.8-1.1,1-1.7c0-0.1,0-0.2,0.1-0.2
		s0-0.1,0.1-0.2l0,0c0.1,0,0-0.1,0.1-0.2s0.1-0.3,0.1-0.5c0.1-0.6,0.3-1.1,0.4-1.7c0.1-0.2,0.1-0.2,0.2-0.1c0.4,0.3,0.8,0.7,1.1,1.2
		c0.2,0.3,0.4,0.7,0.5,1c0.1,0.1,0.1,0.3,0.2,0.5c0.1,0.3,0.2,0.6,0.3,0.9c0.1,0.4,0.2,0.9,0.3,1.3s0.2,1.1,0.4,1.6
		c0.1,0.3,0.1,0.6,0.2,1s0.2,0.9,0.2,1.3c0,0.3,0.1,0.5,0.2,0.7c0,0.1,0,0.1,0,0.2l0,0c0.1,0.2,0.1,0.5,0.2,0.7
		c0.1,0.6,0.3,1.1,0.5,1.7c0.3,0.8,0.7,1.5,1.2,2.2c0.5,0.8,1,1.6,1.5,2.4c0.3,0.5,0.5,1,0.8,1.5s0.4,1,0.6,1.5
		c0.2,0.5,0.3,1,0.4,1.4C53,28.7,53.1,29.9,53,31.2z M29.9,15.7L29.9,15.7z M43.1,8.8C43.1,8.8,43.1,8.8,43.1,8.8
		C43.1,9,43.2,8.9,43.1,8.8L43.1,8.8z M47.1,16L47.1,16z M47.3,16.5L47.3,16.5L47.3,16.5C47.3,16.5,47.3,16.5,47.3,16.5L47.3,16.5z"
		/>
</g>
<rect y="-9.2" class="st0" width="4.2" height="3.2"/>
</svg>
