<?xml version="1.0" encoding="utf-8"?>
<!-- Generator: Adobe Illustrator 21.1.0, SVG Export Plug-In . SVG Version: 6.00 Build 0)  -->
<svg version="1.1" id="Camada_1" xmlns="http://www.w3.org/2000/svg" xmlns:xlink="http://www.w3.org/1999/xlink" x="0px" y="0px"
	 viewBox="0 0 534.5 531.2" style="enable-background:new 0 0 534.5 531.2;" xml:space="preserve">
<style type="text/css">
	.st0{fill:#E257A6;}
	.st1{fill:#FFFFFF;}
</style>
<g>
	<g>
		<g>
			<g>
				<g>
					<path class="st0" d="M229.1,9.4c34.6-5.1,69.1-3.4,102.7,5.3c32.4,8.4,62.6,22.8,89.6,42.8s49.6,44.7,67,73.3
						c18.1,29.6,29.8,62.2,35,96.7c5.1,34.6,3.4,69.1-5.3,102.7c-8.4,32.4-22.8,62.6-42.8,89.6s-44.7,49.6-73.3,67
						c-29.6,18.1-62.2,29.8-96.7,35c-34.6,5.1-69.1,3.4-102.7-5.3c-32.4-8.4-62.6-22.8-89.6-42.8S63.4,429,46,400.4
						c-18.1-29.6-29.8-62.2-35-96.7c-5.1-34.6-3.4-69.1,5.3-102.7c8.4-32.4,22.8-62.6,42.8-89.6s44.7-49.6,73.3-67
						C162,26.4,194.6,14.6,229.1,9.4z M298.1,472.8c114.3-17,193.4-123.8,176.4-238c-17-114.3-123.8-193.4-238-176.4
						C122.2,75.4,43,182.2,60,296.5C77.1,410.7,183.8,489.8,298.1,472.8z"/>
				</g>
			</g>
		</g>
	</g>
	<g>
		<path class="st0" d="M271.2,528.5c-3.1,0-5.7-2.5-5.7-5.6c-0.1-3.2,2.5-5.8,5.6-5.8c4.4-0.1,8.9-0.3,13.4-0.6
			c3.2-0.2,5.9,2.2,6.1,5.3c0.2,3.2-2.2,5.9-5.3,6.1C280.7,528.2,276,528.4,271.2,528.5C271.3,528.5,271.3,528.5,271.2,528.5z
			 M257.5,528.4c-0.1,0-0.1,0-0.2,0c-4.6-0.2-9.3-0.5-14-0.9c-3.2-0.3-5.5-3.1-5.2-6.2c0.3-3.2,3.1-5.5,6.2-5.2
			c4.4,0.4,8.9,0.7,13.4,0.8c3.2,0.1,5.6,2.8,5.5,5.9C263.1,525.9,260.6,528.4,257.5,528.4z M298.5,526.6c-2.9,0-5.3-2.1-5.7-5
			c-0.4-3.1,1.8-6,5-6.4c2.1-0.3,4.3-0.6,6.4-0.9c2.3-0.3,4.5-0.7,6.8-1.1c3.1-0.5,6.1,1.5,6.6,4.7c0.6,3.1-1.5,6.1-4.6,6.6
			c-2.4,0.4-4.8,0.8-7.1,1.2c-2.2,0.3-4.5,0.6-6.7,0.9C299,526.6,298.8,526.6,298.5,526.6z M230.3,525.9c-0.3,0-0.6,0-0.8-0.1
			c-4.6-0.7-9.3-1.5-13.8-2.4c-3.1-0.6-5.1-3.6-4.5-6.7c0.6-3.1,3.6-5.1,6.7-4.5c4.4,0.9,8.8,1.6,13.2,2.3c3.1,0.5,5.3,3.4,4.8,6.5
			C235.5,523.8,233.1,525.9,230.3,525.9z M325.5,521.8c-2.6,0-5-1.8-5.6-4.4c-0.7-3.1,1.2-6.2,4.3-6.9c4.3-1,8.7-2.1,13-3.4
			c3-0.9,6.2,0.9,7.1,3.9c0.9,3-0.9,6.2-3.9,7.1c-4.5,1.3-9,2.5-13.5,3.5C326.3,521.8,325.9,521.8,325.5,521.8z M203.4,520.5
			c-0.5,0-1-0.1-1.4-0.2c-4.5-1.2-9-2.5-13.5-3.8c-3-1-4.7-4.2-3.7-7.2s4.2-4.7,7.2-3.7c4.2,1.3,8.6,2.6,12.9,3.7
			c3.1,0.8,4.9,3.9,4.1,7C208.3,518.8,206,520.5,203.4,520.5z M351.8,514.3c-2.4,0-4.6-1.5-5.4-3.9c-1-3,0.5-6.3,3.5-7.3
			c4.2-1.5,8.4-3,12.5-4.7c2.9-1.2,6.3,0.2,7.5,3.1s-0.2,6.3-3.1,7.5c-4.3,1.8-8.7,3.4-13.1,4.9C353,514.2,352.4,514.3,351.8,514.3z
			 M177.3,512.3c-0.7,0-1.3-0.1-2-0.4c-4.3-1.6-8.7-3.4-13-5.3c-2.9-1.3-4.2-4.6-3-7.5c1.3-2.9,4.6-4.2,7.5-3
			c4.1,1.8,8.3,3.5,12.4,5c3,1.1,4.5,4.4,3.4,7.4C181.8,510.9,179.6,512.3,177.3,512.3z M377.1,503.9c-2.1,0-4.2-1.2-5.2-3.3
			c-1.3-2.9-0.1-6.3,2.7-7.6c4-1.9,8-3.9,11.9-6c2.8-1.5,6.3-0.5,7.8,2.3s0.5,6.3-2.3,7.8c-4.1,2.2-8.3,4.3-12.5,6.3
			C378.8,503.7,377.9,503.9,377.1,503.9z M152.2,501.3c-0.9,0-1.7-0.2-2.6-0.6c-4.2-2.1-8.3-4.3-12.3-6.6c-2.7-1.6-3.7-5.1-2.1-7.8
			c1.6-2.8,5.1-3.7,7.8-2.1c3.9,2.2,7.8,4.3,11.8,6.3c2.8,1.4,4,4.9,2.6,7.7C156.3,500.2,154.2,501.3,152.2,501.3z M401.2,490.9
			c-1.9,0-3.8-1-4.9-2.7c-1.7-2.7-0.8-6.2,1.9-7.9c3.8-2.3,7.6-4.8,11.2-7.3c2.6-1.8,6.2-1.1,8,1.5s1.1,6.2-1.5,8
			c-3.8,2.6-7.8,5.2-11.7,7.6C403.2,490.7,402.2,490.9,401.2,490.9z M128.4,487.8c-1.1,0-2.1-0.3-3.1-0.9c-3.9-2.5-7.8-5.2-11.6-7.9
			c-2.6-1.8-3.2-5.4-1.3-8c1.8-2.6,5.4-3.2,8-1.3c3.6,2.6,7.3,5.1,11.1,7.5c2.7,1.7,3.4,5.3,1.7,7.9
			C132.1,486.8,130.2,487.8,128.4,487.8z M423.7,475.5c-1.7,0-3.4-0.8-4.5-2.2c-1.9-2.5-1.5-6.1,1.1-8c3.5-2.7,7-5.5,10.4-8.4
			c2.4-2.1,6-1.8,8.1,0.6s1.8,6-0.6,8.1c-3.5,3-7.2,6-10.9,8.8C426.2,475.1,425,475.5,423.7,475.5z M106.1,471.8
			c-1.3,0-2.5-0.4-3.6-1.3c-3.6-2.9-7.2-6-10.7-9c-2.4-2.1-2.6-5.7-0.5-8.1s5.7-2.6,8.1-0.4c3.3,3,6.7,5.9,10.2,8.7
			c2.5,2,2.9,5.6,0.9,8.1C109.5,471,107.8,471.8,106.1,471.8z M444.5,457.7c-1.5,0-3-0.6-4.1-1.8c-2.2-2.3-2.1-5.9,0.2-8.1
			c3.2-3.1,6.4-6.3,9.4-9.5c2.2-2.3,5.8-2.4,8.1-0.2c2.3,2.2,2.4,5.8,0.2,8.1c-3.2,3.4-6.5,6.7-9.9,9.9
			C447.3,457.2,445.9,457.7,444.5,457.7z M85.8,453.5c-1.5,0-2.9-0.6-4-1.7c-3.3-3.3-6.5-6.7-9.7-10.1c-2.1-2.3-1.9-6,0.4-8.1
			s6-1.9,8.1,0.4c3,3.3,6.1,6.6,9.2,9.7c2.2,2.2,2.3,5.9,0,8.1C88.7,453,87.2,453.5,85.8,453.5z M463.3,437.8
			c-1.3,0-2.6-0.5-3.7-1.4c-2.4-2-2.7-5.7-0.7-8.1c2.9-3.4,5.7-6.9,8.4-10.4c1.9-2.5,5.5-3,8-1.1s3,5.5,1.1,8
			c-2.8,3.7-5.8,7.4-8.8,10.9C466.5,437.1,464.9,437.8,463.3,437.8z M67.4,433.2c-1.7,0-3.3-0.7-4.5-2.1c-2.9-3.6-5.8-7.3-8.5-11.1
			c-1.9-2.6-1.3-6.1,1.3-8s6.1-1.3,8,1.3c2.6,3.6,5.3,7.2,8.1,10.6c2,2.5,1.6,6.1-0.8,8.1C70,432.8,68.7,433.2,67.4,433.2z
			 M479.9,416c-1.1,0-2.2-0.3-3.2-1c-2.6-1.8-3.3-5.3-1.5-8c2.5-3.7,4.9-7.5,7.2-11.3c1.6-2.7,5.2-3.6,7.9-1.9
			c2.7,1.6,3.6,5.2,1.9,7.9c-2.4,4-5,7.9-7.6,11.8C483.5,415.1,481.7,416,479.9,416z M51.3,411.1c-1.9,0-3.7-0.9-4.8-2.6
			c-2.5-3.9-5-7.9-7.3-11.9c-1.6-2.7-0.6-6.2,2.1-7.8c2.7-1.6,6.2-0.6,7.8,2.1c2.2,3.8,4.6,7.7,7,11.4c1.7,2.7,1,6.2-1.7,7.9
			C53.5,410.8,52.4,411.1,51.3,411.1z M494,392.6c-0.9,0-1.8-0.2-2.7-0.7c-2.8-1.5-3.8-5-2.3-7.8c2.1-3.9,4.1-7.9,6-12
			c1.3-2.9,4.8-4.1,7.6-2.8c2.9,1.3,4.1,4.8,2.8,7.6c-2,4.2-4.1,8.4-6.3,12.5C498.1,391.5,496.1,392.6,494,392.6z M37.7,387.4
			c-2.1,0-4.1-1.2-5.1-3.1c-2.1-4.1-4.1-8.4-6-12.7c-1.3-2.9,0-6.3,2.9-7.6c2.9-1.3,6.3,0,7.6,2.9c1.8,4.1,3.7,8.1,5.7,12.1
			c1.4,2.8,0.3,6.3-2.5,7.7C39.5,387.2,38.6,387.4,37.7,387.4z M505.7,367.8c-0.7,0-1.4-0.1-2.2-0.4c-2.9-1.2-4.3-4.5-3.2-7.5
			c1.7-4.1,3.3-8.3,4.7-12.5c1-3,4.3-4.6,7.3-3.5c3,1,4.6,4.3,3.6,7.3c-1.5,4.4-3.2,8.8-4.9,13.1
			C510.1,366.5,507.9,367.8,505.7,367.8z M26.7,362.4c-2.3,0-4.5-1.4-5.4-3.7c-1.6-4.3-3.2-8.8-4.6-13.2c-1-3,0.7-6.2,3.7-7.2
			s6.2,0.7,7.2,3.7c1.3,4.2,2.8,8.5,4.4,12.6c1.1,3-0.4,6.3-3.3,7.4C28.1,362.3,27.4,362.4,26.7,362.4z M514.6,341.9
			c-0.5,0-1.1-0.1-1.6-0.2c-3-0.9-4.8-4-3.9-7.1c1.2-4.3,2.3-8.6,3.3-13c0.7-3.1,3.8-5,6.9-4.3c3.1,0.7,5,3.8,4.3,6.9
			c-1,4.5-2.2,9.1-3.5,13.6C519.4,340.3,517.1,341.9,514.6,341.9z M18.4,336.3c-2.5,0-4.9-1.7-5.5-4.3c-1.2-4.5-2.2-9.1-3.2-13.6
			c-0.6-3.1,1.4-6.1,4.5-6.8c3.1-0.6,6.1,1.4,6.8,4.5c0.9,4.4,1.9,8.7,3,13c0.8,3.1-1,6.2-4.1,7C19.4,336.3,18.9,336.3,18.4,336.3z
			 M520.7,315.2c-0.3,0-0.6,0-1-0.1c-3.1-0.5-5.2-3.5-4.7-6.6c0.8-4.4,1.4-8.9,1.9-13.3c0.4-3.1,3.2-5.4,6.4-5
			c3.1,0.4,5.4,3.2,5,6.4c-0.5,4.6-1.2,9.3-2,13.9C525.9,313.2,523.5,315.2,520.7,315.2z M12.9,309.5c-2.8,0-5.2-2-5.7-4.9v-0.3
			c-0.7-4.6-1.3-9.3-1.7-13.9c-0.3-3.1,2-5.9,5.2-6.2c3.2-0.3,5.9,2,6.2,5.2c0.4,4.4,1,8.9,1.6,13.3v0.3c0.5,3.1-1.7,6-4.8,6.5
			C13.5,309.5,13.2,309.5,12.9,309.5z M523.9,288c-0.1,0-0.2,0-0.4,0c-3.2-0.2-5.6-2.9-5.4-6.1c0.3-4.4,0.5-8.9,0.5-13.4
			c0-3.1,2.6-5.7,5.7-5.7c0,0,0,0,0.1,0c3.2,0,5.7,2.6,5.7,5.8c0,4.7-0.2,9.4-0.5,14C529.4,285.6,526.9,288,523.9,288z M10.3,281.9
			c-3.1,0-5.6-2.4-5.7-5.5c-0.2-3.7-0.2-7.5-0.2-11.2c0-0.9,0-1.9,0-2.8c0-3.2,2.6-5.7,5.8-5.7s5.7,2.6,5.7,5.8c0,0.9,0,1.8,0,2.7
			c0,3.5,0.1,7.1,0.2,10.7c0.1,3.2-2.3,5.8-5.5,6C10.5,281.9,10.4,281.9,10.3,281.9z M524.2,260.6c-3.1,0-5.6-2.4-5.7-5.5
			c-0.2-4.4-0.5-8.9-0.9-13.4c-0.3-3.2,2-5.9,5.2-6.3c3.2-0.3,5.9,2,6.3,5.2c0.4,4.6,0.8,9.3,1,14c0.1,3.2-2.3,5.8-5.5,6
			C524.4,260.6,524.3,260.6,524.2,260.6z M10.6,254.6c-0.1,0-0.2,0-0.4,0c-3.2-0.2-5.6-2.9-5.4-6.1c0.3-4.6,0.7-9.3,1.3-13.9
			c0.4-3.1,3.2-5.4,6.4-5c3.1,0.4,5.4,3.2,5,6.4c-0.5,4.4-0.9,8.9-1.2,13.3C16.1,252.3,13.6,254.6,10.6,254.6z M521.6,233.3
			c-2.8,0-5.2-2-5.7-4.9c-0.7-4.4-1.4-8.8-2.3-13.2c-0.6-3.1,1.4-6.1,4.5-6.8c3.1-0.6,6.1,1.4,6.8,4.5c0.9,4.5,1.7,9.2,2.4,13.8
			c0.5,3.1-1.7,6-4.8,6.5C522.1,233.3,521.9,233.3,521.6,233.3z M13.8,227.4c-0.3,0-0.7,0-1-0.1c-3.1-0.5-5.2-3.5-4.7-6.6
			c0.8-4.6,1.7-9.2,2.8-13.7c0.7-3.1,3.8-5,6.9-4.3s5,3.8,4.3,6.9c-1,4.3-1.9,8.8-2.6,13.1C19,225.4,16.6,227.4,13.8,227.4z
			 M516.1,206.5c-2.5,0-4.9-1.7-5.5-4.3c-1.1-4.3-2.4-8.6-3.7-12.9c-1-3,0.7-6.2,3.7-7.2s6.2,0.7,7.2,3.7c1.4,4.4,2.7,8.9,3.9,13.4
			c0.8,3.1-1,6.2-4.1,7C517.1,206.5,516.6,206.5,516.1,206.5z M19.9,200.7c-0.5,0-1.1-0.1-1.6-0.2c-3-0.9-4.8-4-3.9-7.1
			c1.3-4.5,2.7-9,4.2-13.4c1-3,4.3-4.6,7.3-3.5c3,1,4.6,4.3,3.5,7.3c-1.5,4.2-2.8,8.5-4,12.8C24.7,199,22.4,200.7,19.9,200.7z
			 M507.9,180.4c-2.3,0-4.5-1.4-5.4-3.7c-1.6-4.2-3.3-8.3-5.1-12.4c-1.3-2.9,0-6.3,2.9-7.5c2.9-1.3,6.3,0,7.5,2.9
			c1.9,4.3,3.6,8.6,5.3,13c1.1,3-0.4,6.3-3.3,7.4C509.2,180.3,508.5,180.4,507.9,180.4z M28.9,174.8c-0.7,0-1.4-0.1-2.2-0.4
			c-2.9-1.2-4.3-4.5-3.2-7.5c1.7-4.3,3.6-8.6,5.6-12.8c1.3-2.9,4.8-4.1,7.6-2.8c2.9,1.3,4.1,4.8,2.7,7.6c-1.9,4-3.7,8.2-5.4,12.3
			C33.3,173.4,31.2,174.8,28.9,174.8z M496.9,155.4c-2.1,0-4.1-1.2-5.1-3.1c-2-4-4.1-7.9-6.3-11.8c-1.6-2.7-0.6-6.2,2.1-7.8
			s6.2-0.6,7.8,2.1c2.3,4,4.5,8.2,6.6,12.3c1.4,2.8,0.3,6.3-2.5,7.7C498.6,155.2,497.7,155.4,496.9,155.4z M40.5,150
			c-0.9,0-1.8-0.2-2.7-0.7c-2.8-1.5-3.8-5-2.3-7.8c2.2-4.1,4.5-8.2,6.9-12.2c1.6-2.7,5.2-3.6,7.9-1.9c2.7,1.6,3.6,5.2,1.9,7.9
			c-2.3,3.8-4.5,7.7-6.6,11.6C44.6,148.9,42.6,150,40.5,150z M483.3,131.7c-1.9,0-3.7-0.9-4.8-2.6c-2.4-3.7-5-7.4-7.6-11
			c-1.9-2.6-1.3-6.1,1.3-8c2.6-1.9,6.1-1.3,8,1.3c2.7,3.8,5.4,7.6,7.9,11.5c1.7,2.7,1,6.2-1.7,7.9
			C485.4,131.4,484.3,131.7,483.3,131.7z M54.7,126.6c-1.1,0-2.2-0.3-3.2-1c-2.6-1.8-3.3-5.3-1.5-8c2.6-3.8,5.4-7.7,8.2-11.3
			c1.9-2.5,5.5-3,8-1.1c2.5,1.9,3,5.5,1.1,8c-2.7,3.5-5.3,7.2-7.8,10.9C58.4,125.7,56.6,126.6,54.7,126.6z M467.2,109.6
			c-1.7,0-3.3-0.7-4.5-2.1c-2.8-3.5-5.7-6.9-8.7-10.2c-2.1-2.3-1.9-6,0.4-8.1s6-1.9,8.1,0.4c3.1,3.4,6.2,7,9.1,10.6
			c2,2.5,1.6,6.1-0.8,8.1C469.7,109.1,468.5,109.6,467.2,109.6z M71.3,104.8c-1.3,0-2.6-0.4-3.7-1.4c-2.4-2-2.7-5.7-0.7-8.1
			c3-3.5,6.1-7,9.3-10.4c2.2-2.3,5.8-2.4,8.1-0.2c2.3,2.2,2.4,5.8,0.2,8.1c-3,3.2-6.1,6.6-8.9,10C74.6,104.1,72.9,104.8,71.3,104.8z
			 M448.9,89.3c-1.5,0-2.9-0.6-4-1.7c-3.1-3.1-6.4-6.2-9.7-9.2c-2.4-2.1-2.6-5.7-0.4-8.1c2.1-2.4,5.7-2.6,8.1-0.4
			c3.5,3.1,6.9,6.3,10.2,9.6c2.2,2.2,2.2,5.9,0,8.1C451.8,88.7,450.3,89.3,448.9,89.3z M90.1,84.9c-1.5,0-3-0.6-4.2-1.8
			c-2.2-2.3-2.1-5.9,0.2-8.1c3.4-3.2,6.9-6.4,10.4-9.4c2.4-2.1,6-1.8,8.1,0.6c2.1,2.4,1.8,6-0.6,8.1c-3.4,2.9-6.7,5.9-9.9,9
			C93,84.4,91.5,84.9,90.1,84.9z M428.5,71c-1.3,0-2.5-0.4-3.6-1.3c-3.5-2.8-7-5.5-10.6-8.1c-2.6-1.8-3.1-5.4-1.3-8
			c1.9-2.6,5.4-3.1,8-1.3c3.8,2.7,7.5,5.6,11.1,8.5c2.5,2,2.9,5.6,0.9,8.1C431.8,70.3,430.2,71,428.5,71z M110.9,67.1
			c-1.7,0-3.4-0.8-4.6-2.2c-1.9-2.5-1.5-6.1,1.1-8c3.7-2.8,7.5-5.6,11.3-8.2c2.6-1.8,6.2-1.1,8,1.5c1.8,2.6,1.1,6.2-1.5,8
			c-3.7,2.5-7.3,5.1-10.8,7.9C113.4,66.7,112.1,67.1,110.9,67.1z M406.3,55c-1.1,0-2.1-0.3-3.1-0.9c-3.7-2.4-7.6-4.7-11.5-6.9
			c-2.7-1.6-3.7-5.1-2.1-7.8s5.1-3.7,7.8-2.1c4,2.3,8.1,4.7,12,7.3c2.7,1.7,3.4,5.3,1.7,7.9C410,54.1,408.2,55,406.3,55z
			 M133.5,51.7c-1.9,0-3.8-1-4.9-2.7c-1.6-2.7-0.8-6.2,1.9-7.9c4-2.4,8-4.8,12.1-7c2.8-1.5,6.3-0.5,7.8,2.3s0.5,6.3-2.3,7.8
			c-3.9,2.1-7.8,4.3-11.6,6.6C135.5,51.4,134.5,51.7,133.5,51.7z M382.5,41.4c-0.9,0-1.7-0.2-2.6-0.6c-4-2-8.1-3.9-12.1-5.7
			c-2.9-1.3-4.2-4.6-3-7.5c1.3-2.9,4.6-4.2,7.5-3c4.3,1.9,8.5,3.9,12.7,5.9c2.8,1.4,4,4.9,2.5,7.7C386.6,40.3,384.6,41.4,382.5,41.4
			z M157.5,38.7c-2.2,0-4.2-1.2-5.2-3.3c-1.3-2.9-0.1-6.3,2.7-7.6c4.2-2,8.5-3.9,12.8-5.6c2.9-1.2,6.3,0.2,7.5,3.1s-0.2,6.3-3.1,7.5
			c-4.1,1.7-8.2,3.5-12.3,5.4C159.2,38.5,158.3,38.7,157.5,38.7z M357.4,30.5c-0.7,0-1.3-0.1-2-0.4c-4.2-1.6-8.4-3-12.7-4.4
			c-3-1-4.7-4.2-3.7-7.2s4.2-4.7,7.2-3.7c4.4,1.4,8.9,2.9,13.2,4.6c3,1.1,4.5,4.4,3.4,7.4C361.9,29,359.7,30.5,357.4,30.5z
			 M182.9,28.4c-2.4,0-4.6-1.5-5.4-3.9c-1-3,0.6-6.3,3.5-7.3c4.4-1.5,8.9-2.9,13.3-4.2c3-0.9,6.2,0.9,7.1,3.9c0.9,3-0.9,6.2-3.9,7.1
			c-4.3,1.2-8.6,2.6-12.8,4C184.1,28.3,183.5,28.4,182.9,28.4z M331.3,22.2c-0.5,0-1-0.1-1.4-0.2c-4.3-1.1-8.7-2.1-13.1-3
			c-3.1-0.6-5.1-3.6-4.5-6.7s3.6-5.1,6.7-4.5c4.6,0.9,9.2,2,13.7,3.1c3.1,0.8,4.9,3.9,4.1,7C336.1,20.5,333.8,22.2,331.3,22.2z
			 M209.2,20.8c-2.6,0-5-1.8-5.6-4.4c-0.7-3.1,1.2-6.2,4.3-6.9c4.5-1,9.1-2,13.7-2.8c3.1-0.6,6.1,1.5,6.6,4.7
			c0.5,3.1-1.5,6.1-4.7,6.6c-4.4,0.8-8.8,1.7-13.1,2.7C210,20.8,209.6,20.8,209.2,20.8z M304.4,16.8c-0.3,0-0.6,0-0.8-0.1
			c-4.4-0.6-8.9-1.2-13.3-1.6c-3.1-0.3-5.5-3.1-5.2-6.2c0.3-3.2,3.1-5.5,6.2-5.2c4.6,0.4,9.3,1,13.9,1.6c3.1,0.5,5.3,3.4,4.8,6.5
			C309.6,14.8,307.2,16.8,304.4,16.8z M236.1,16.1c-2.9,0-5.3-2.1-5.7-5c-0.4-3.1,1.9-6,5-6.4c4.6-0.6,9.3-1,13.9-1.3
			c3.2-0.2,5.9,2.2,6.1,5.3c0.2,3.2-2.2,5.9-5.3,6.1c-4.4,0.3-8.9,0.7-13.3,1.3C236.6,16.1,236.4,16.1,236.1,16.1z M277.1,14.3
			c-0.1,0-0.1,0-0.2,0c-3.1-0.1-6.2-0.2-9.3-0.2c-1.3,0-2.7,0-4,0c-3.2,0.1-5.8-2.5-5.8-5.6c-0.1-3.2,2.5-5.8,5.6-5.8
			c1.4,0,2.8,0,4.2,0c3.2,0,6.5,0.1,9.8,0.2c3.2,0.1,5.6,2.8,5.5,5.9C282.7,11.9,280.2,14.3,277.1,14.3z"/>
	</g>
	<g>
		<path class="st1" d="M267,497.4c-55,0-108.4-19.8-150.4-55.7c-20.8-17.8-38.1-38.8-51.4-62.6c-13.8-24.6-22.9-51.3-27.1-79.4
			c-4.6-30.9-3-61.9,4.7-91.9c7.5-29,20.4-56,38.3-80.2s40-44.4,65.6-60c26.5-16.2,55.6-26.7,86.6-31.3c11.4-1.7,23-2.6,34.4-2.6
			c55,0,108.4,19.8,150.4,55.7c20.8,17.8,38.1,38.8,51.4,62.6c13.8,24.6,22.9,51.3,27.1,79.4c4.6,30.9,3,61.9-4.7,91.9
			c-7.5,29-20.4,56-38.3,80.2s-40,44.4-65.6,60c-26.5,16.2-55.6,26.7-86.6,31.3C290,496.6,278.4,497.4,267,497.4z M267.5,42.1
			c-11,0-22.2,0.8-33.2,2.5C112.5,62.7,28,176.6,46.2,298.5C62.4,407.2,157.3,489.2,267,489.2c11,0,22.2-0.8,33.2-2.5
			c59.1-8.8,111.1-40,146.7-88c35.5-48,50.3-106.9,41.5-166C472.2,124,377.2,42.1,267.5,42.1z"/>
	</g>
</g>
</svg>
