<?xml version="1.0" encoding="utf-8"?>
<!-- Generator: Adobe Illustrator 21.1.0, SVG Export Plug-In . SVG Version: 6.00 Build 0)  -->
<svg version="1.1" id="Camada_1" xmlns="http://www.w3.org/2000/svg" xmlns:xlink="http://www.w3.org/1999/xlink" x="0px" y="0px"
	 viewBox="0 0 128 48" style="enable-background:new 0 0 128 48;" xml:space="preserve">
<style type="text/css">
	.st0{fill:none;stroke:#FFFFFF;stroke-width:2.5;stroke-linecap:round;stroke-linejoin:round;stroke-miterlimit:10;}
</style>
<path class="st0" d="M1.5,35.3c0,0,5.6-5.7,6.9-10.1s3.7-15,6.5-21.5c-2.4,6.8-6,17.3-7.1,25.1s-0.3,13.7,4.1,14.8s11.4-14,12.9-20
	c-1.3,6.5-3.9,20.6,1.6,20.6s8.2-16.2,8.5-17.8c-0.1,5.4,0.2,17,4.3,17s4.5-13.3,7.9-18.3c-2.8,5.8-2.6,7,2.2,9.9
	c2.6,1.6,7,2.5,10-3.7c1.3-2.7-0.4-6.7-3.7-6.2s-6.3,5.8-6.4,11.1c-0.1,5.3,2.2,7.3,5.9,7.3s7.8-2.9,9.7-8.3
	c1.9-5.5,4.3-10.7,8.6-9.5s1.8,7.6,0,9.1s-4.8,3.2-8.6,0.5c-0.1,4.4,1.6,8.5,6.2,8.5S81.4,40.9,81.7,28c-1,8.7,0.2,6.8-2.3,15.2
	c2.3-10.1,4.4-13.7,8.4-16.3c4.9-3.2,2.4,9.2,2.8,14c0.4,4.5,4.6,3.6,7.1-0.4s5-11,5.2-13.9c-1.9,9-3.8,16.7,0.5,17.2
	c4.2,0.5,6.3-8.3,7.9-12c1.7-3.7,4.7-7.3,8.6-4.4s-3.3,13.4-10.2,8.5c-0.5,6.5,3.7,8.3,5.9,8.5c2.2,0.2,8.4-0.9,11-12 M4.1,15.4
	c0,0,7.1,3.8,21.7-0.6 M102.6,21.9c0,0,0.4-4.5-0.5-9c3.2,0.3,6.3,3.1,6.3,4.1S104.9,21,102.6,21.9z"/>
</svg>
