<?xml version="1.0" encoding="utf-8"?>
<!-- Generator: Adobe Illustrator 21.1.0, SVG Export Plug-In . SVG Version: 6.00 Build 0)  -->
<svg version="1.1" id="Camada_1" xmlns="http://www.w3.org/2000/svg" xmlns:xlink="http://www.w3.org/1999/xlink" x="0px" y="0px"
	 viewBox="0 0 534.5 531.2" style="enable-background:new 0 0 534.5 531.2;" xml:space="preserve">
<style type="text/css">
	.st0{fill:#1E1E1E;}
	.st1{fill:#ED863A;}
	.st2{fill:#C4C4C4;}
</style>
<path d="M265.8,4.7C121.5,4.7,4.5,121.7,4.5,266s117,261.3,261.3,261.3s261.3-117,261.3-261.3S410.1,4.7,265.8,4.7 M265.8,489.2
	C145.3,489.2,42.6,386.5,42.6,266S145.3,42.8,265.8,42.8S487.4,145.5,487.4,266S386.3,489.2,265.8,489.2"/>
<path class="st0" d="M265.8,11.5c-140.6,0-254.5,114-254.5,254.5c0,140.6,114,254.5,254.5,254.5c140.6,0,254.5-114,254.5-254.5
	S406.4,11.5,265.8,11.5 M265.8,487.6c-122.3,0-221.5-99.2-221.5-221.5c0-122.4,99.2-221.5,221.5-221.5S487.4,143.7,487.4,266
	C487.4,388.4,388.2,487.6,265.8,487.6"/>
<path class="st1" d="M265.8,28.7C134.8,28.7,28.5,135,28.5,266c0,131.1,106.2,237.3,237.3,237.3c131,0,237.3-106.2,237.3-237.3
	C503.1,135,396.9,28.7,265.8,28.7 M265.8,487.8C146.1,487.8,44,385.8,44,266C44,146.3,146.1,44.2,265.8,44.2S487.6,146.3,487.6,266
	C487.6,385.8,385.6,487.8,265.8,487.8"/>
<path class="st2" d="M265.8,35.8C138.7,35.8,35.6,138.9,35.6,266c0,127.2,103.1,230.3,230.2,230.3C393,496.3,496,393.2,496,266
	C496.1,138.9,393,35.8,265.8,35.8 M265.8,487.8C146.1,487.8,44,385.8,44,266C44,146.3,146.1,44.2,265.8,44.2S486.6,146.3,486.6,266
	C486.6,385.8,385.6,487.8,265.8,487.8"/>
<rect x="-242.5" y="138" transform="matrix(-1.836970e-16 1 -1 -1.836970e-16 75.5471 356.0449)" class="st1" width="204.5" height="155.5"/>
</svg>
